<svg width="150" height="90" viewBox="0 0 150 90" fill="none" xmlns="http://www.w3.org/2000/svg">
<path d="M75.1575 0.0198923C90.8277 0.0198923 106.498 -0.0267216 122.167 0.0340791C137.777 0.0938664 149.851 11.3977 149.999 25.9686C150.15 40.8202 138.104 52.1332 122.04 52.195C114.119 52.2264 106.196 52.3318 98.2787 52.1504C94.6409 52.0663 93.4499 53.4759 93.528 57.0145C93.6567 62.7753 93.4337 68.5403 93.4083 74.3031C93.4083 74.3031 93.4763 76.1677 93.4915 80.7673C93.5117 86.9112 93.3465 87.4837 92.8904 87.962C90.2834 90.7204 80.4992 88.0836 78.0919 82.3937C77.3722 80.6913 77.5658 79.1601 77.5628 78.3241C77.5202 67.6505 77.4614 56.976 77.5628 46.3024C77.6357 38.9759 80.6035 36.1689 88.1295 36.1274C99.3217 36.0656 110.515 36.1446 121.708 36.0899C129.405 36.0514 133.46 32.5716 133.479 26.1652C133.497 19.8622 129.275 16.128 121.748 16.1169C106.164 16.0932 90.5801 16.0814 74.9963 16.0814C68.782 16.0814 42.1233 15.7683 28.76 16.1159C27.2335 16.1564 22.9723 16.3246 19.518 19.2187C18.6939 19.9098 15.8396 22.3013 15.565 26.298C15.3328 29.6775 17.0397 32.835 19.3791 34.5587C20.4819 35.3694 21.7803 35.9075 29.2293 35.9967C40.2643 36.1284 45.7783 36.098 46.7149 36.1173C48.8434 36.1588 49.8094 36.3199 50.4723 36.5277C50.6446 36.5824 50.8646 36.6655 51.1869 36.8033C51.9167 37.1174 54.1821 38.0923 55.4795 39.4603C57.0718 41.1293 57.1053 43.2897 57.1732 47.2215C57.2188 50.0447 56.7495 50.7865 56.3816 51.1837C55.2849 52.3642 53.4148 52.2355 52.5563 52.2254C42.5703 52.1109 32.5762 52.3916 22.5973 52.1099C17.9915 51.9802 16.6667 53.6623 16.7042 58.0957C16.8056 69.4198 19.3447 72.2065 30.6037 72.2187C40.2461 72.2298 49.8895 72.1721 59.5329 72.2481C65.6763 72.2957 69.5026 75.5425 69.4114 80.3944C69.3242 85.0476 65.6155 88.2022 59.7356 88.2589C49.0604 88.3603 38.3831 88.3461 27.7058 88.2833C11.9596 88.19 0.91338 77.8519 0.329547 62.0305C-0.108327 50.1683 -0.111368 38.2635 0.329547 26.4013C0.932639 10.356 12.0468 0.0695462 28.1478 0.0198923C43.817 -0.0216549 59.4872 0.0138122 75.1575 0.0198923Z" fill="url(#paint0_linear_119_11)"/>
<defs>
<linearGradient id="paint0_linear_119_11" x1="-2.11258e-07" y1="45" x2="134.5" y2="45" gradientUnits="userSpaceOnUse">
<stop stop-color="#004EBD"/>
<stop offset="1" stop-color="#76F4DE"/>
</linearGradient>
</defs>
</svg>
