<svg width="50" height="50" viewBox="0 0 50 50" fill="none" xmlns="http://www.w3.org/2000/svg">
<g clip-path="url(#clip0_258_2)">
<path d="M1.23099 1.20804L1.07513 35.8977L48.7589 36.1696L48.9147 1.47994L1.23099 1.20804Z" fill="#76F4DE"/>
<path d="M36.3196 36.0778C38.2168 36.0929 40.0629 35.3856 41.5585 34.0704V36.1055L41.501 48.8715L36.2949 43.0343L31.0396 48.742L31.097 36.0778V34.0426C32.5769 35.3803 34.4223 36.0995 36.3196 36.0778Z" fill="#76F4DE"/>
<path d="M36.4099 17.5763C38.5902 17.5934 40.6762 18.5798 42.2141 20.321C43.7519 22.0621 44.6172 24.417 44.6214 26.8733C44.618 28.2673 44.3295 29.6416 43.7784 30.8898C43.2273 32.1379 42.4284 33.2262 41.4436 34.0703C39.9648 35.394 38.1261 36.103 36.2375 36.0777C34.3436 36.0658 32.5078 35.3395 31.0231 34.0148C30.0558 33.1603 29.2736 32.0692 28.7359 30.8239C28.1981 29.5786 27.9188 28.2118 27.9192 26.827C27.9896 24.3443 28.9154 21.99 30.5004 20.2632C32.0854 18.5363 34.205 17.5726 36.4099 17.5763Z" fill="#76F4DE"/>
<path d="M32.2959 9.4265L7.39037 9.25074C7.10783 9.24359 6.83875 9.11333 6.63968 8.88735C6.44061 8.66136 6.32705 8.35724 6.32288 8.03889C6.33775 7.72154 6.46187 7.42322 6.66886 7.20731C6.87586 6.99139 7.14942 6.87489 7.43143 6.88256L32.3042 7.02132C32.5875 7.02839 32.8575 7.15833 33.0578 7.38408C33.2582 7.60983 33.3736 7.91398 33.3799 8.23316C33.3619 8.54773 33.2412 8.84368 33.041 9.064C32.8409 9.28433 32.5755 9.41345 32.2959 9.4265Z" fill="#16191E"/>
<path d="M26.047 16.3275L7.39037 16.2257C7.10849 16.2163 6.84057 16.0854 6.64192 15.8598C6.44327 15.6343 6.32907 15.3315 6.32288 15.0139C6.32922 14.6981 6.44398 14.3973 6.64304 14.1747C6.8421 13.9522 7.10997 13.8253 7.39037 13.8206L26.047 13.9223C26.326 13.9363 26.5898 14.0693 26.785 14.2944C26.9801 14.5194 27.0921 14.8196 27.098 15.1342C27.0775 15.4414 26.9604 15.7303 26.7677 15.9491C26.5751 16.1678 26.3195 16.302 26.047 16.3275Z" fill="#16191E"/>
<path d="M22.8609 23.247L7.39035 23.1267C7.10702 23.1197 6.83704 22.9897 6.63665 22.764C6.43626 22.5382 6.32091 22.2341 6.31464 21.9149C6.32929 21.604 6.44881 21.3111 6.64875 21.0962C6.8487 20.8812 7.11398 20.7605 7.39035 20.7585L22.9019 20.8418C23.1845 20.8489 23.4535 20.9792 23.6526 21.2052C23.8517 21.4312 23.9652 21.7353 23.9694 22.0536C23.9732 22.2163 23.9468 22.378 23.8918 22.5285C23.8367 22.6789 23.7544 22.8147 23.6499 22.9271C23.5455 23.0395 23.4214 23.126 23.2855 23.1811C23.1496 23.2362 23.0049 23.2587 22.8609 23.247Z" fill="#16191E"/>
<path d="M48.7601 37.271H41.46C41.1769 37.271 40.9054 37.1443 40.7052 36.9188C40.505 36.6933 40.3925 36.3874 40.3925 36.0685C40.3925 35.7495 40.505 35.4436 40.7052 35.2181C40.9054 34.9926 41.1769 34.8659 41.46 34.8659H47.6844L47.8322 2.48844L2.22532 2.22942L2.07752 34.6068L31.1053 34.7734C31.3879 34.7781 31.6578 34.906 31.8584 35.1303C32.059 35.3545 32.1746 35.6577 32.181 35.976C32.1706 36.2943 32.0525 36.5962 31.851 36.8198C31.6495 37.0433 31.3798 37.1717 31.0971 37.1785L1.07571 37.0028C0.791735 36.998 0.52058 36.8688 0.319757 36.6426C0.118934 36.4163 0.00423914 36.1108 0 35.7909L0.156019 1.19334C0.164512 0.875082 0.282195 0.572927 0.484331 0.350387C0.686467 0.127846 0.957314 0.0022502 1.23994 0L48.9243 0.277521C49.2069 0.282228 49.4768 0.410156 49.6774 0.634418C49.878 0.858681 49.9937 1.16181 50 1.48011L49.844 36.1702C49.8058 36.4674 49.6766 36.7402 49.4786 36.9413C49.2806 37.1423 49.0264 37.259 48.7601 37.271Z" fill="#76F4DE"/>
<path d="M41.4025 50C41.2613 49.9997 41.1217 49.9658 40.9929 49.9004C40.8641 49.8351 40.749 49.7398 40.6553 49.6208L36.2046 44.6069L31.7868 49.5745C31.6413 49.7502 31.4508 49.8704 31.2418 49.9184C31.0329 49.9665 30.8158 49.9401 30.6208 49.8428C30.42 49.7617 30.2478 49.6099 30.1295 49.41C30.0112 49.2101 29.9531 48.9726 29.9639 48.7327L30.0295 34.0241C30.0531 33.7198 30.1771 33.4365 30.377 33.2301C30.5769 33.0237 30.8382 32.9092 31.1094 32.9092C31.3805 32.9092 31.6418 33.0237 31.8417 33.2301C32.0416 33.4365 32.1656 33.7198 32.1892 34.0241L32.1317 45.9575L35.5477 42.1832C35.7472 41.9629 36.0155 41.8394 36.2949 41.8394C36.5744 41.8394 36.8426 41.9629 37.0422 42.1832L40.4253 45.9945L40.4746 34.0611C40.4982 33.7568 40.6222 33.4735 40.8221 33.2671C41.022 33.0607 41.2833 32.9462 41.5544 32.9462C41.8256 32.9462 42.0869 33.0607 42.2868 33.2671C42.4867 33.4735 42.6107 33.7568 42.6342 34.0611L42.5685 48.7697C42.5809 49.0242 42.5206 49.2764 42.3964 49.4895C42.2723 49.7026 42.0909 49.8653 41.8788 49.9538C41.6489 49.9538 41.5667 50 41.4025 50Z" fill="#16191E"/>
<path d="M36.3196 37.2063C34.2088 37.1724 32.1684 36.3455 30.5223 34.8566C29.4156 33.9244 28.5192 32.7117 27.9058 31.3168C27.2924 29.9218 26.9791 28.3837 26.9913 26.827C27.0752 24.0801 28.106 21.4781 29.8651 19.5735C31.6241 17.6689 33.9729 16.6116 36.4126 16.626C38.8524 16.6404 41.1911 17.7255 42.9323 19.6509C44.6735 21.5762 45.68 24.1903 45.7382 26.938C45.7315 28.5019 45.4112 30.0439 44.8012 31.4487C44.1912 32.8536 43.3073 34.085 42.2155 35.0509C40.4917 36.4307 38.4342 37.1829 36.3196 37.2063ZM36.4017 18.7049C35.4464 18.6939 34.4985 18.8955 33.6125 19.2981C32.7265 19.7007 31.9197 20.2963 31.2384 21.0509C30.5572 21.8055 30.0148 22.7041 29.6425 23.6953C29.2702 24.6865 29.0753 25.7508 29.0688 26.827C29.0515 28.044 29.2877 29.2487 29.7583 30.3443C30.2288 31.4399 30.9208 32.396 31.7786 33.136C33.0645 34.3093 34.6732 34.9406 36.3278 34.9214C37.9754 34.9141 39.5768 34.3073 40.8934 33.1915C41.7432 32.4453 42.4332 31.4933 42.9122 30.406C43.3912 29.3187 43.647 28.124 43.6607 26.9103C43.6333 24.7485 42.8605 22.6835 41.5057 21.1521C40.151 19.6208 38.3206 18.7431 36.4017 18.7049Z" fill="#16191E"/>
</g>
<defs>
<clipPath id="clip0_258_2">
<rect width="50" height="50" fill="white"/>
</clipPath>
</defs>
</svg>
