<svg width="1000" height="1000" viewBox="0 0 1000 1000" fill="none" xmlns="http://www.w3.org/2000/svg">
<g clip-path="url(#clip0_253_61)">
<path d="M869.422 506.283L826.444 553.313C825.113 554.731 824.115 556.748 823.592 559.074C823.07 561.401 823.051 563.916 823.537 566.26L840.096 642.422L796.992 595.392C795.679 593.909 794.082 593.107 792.441 593.107C790.8 593.107 789.203 593.909 787.89 595.392L744.786 642.422L761.345 566.26C761.825 563.934 761.816 561.44 761.318 559.122C760.82 556.804 759.858 554.775 758.564 553.313L715.459 506.283H768.677C770.318 506.272 771.914 505.471 773.233 503.999C774.552 502.526 775.524 500.458 776.008 498.096L792.441 421.934L809 498.096C809.484 500.458 810.457 502.526 811.775 503.999C813.094 505.471 814.69 506.272 816.332 506.283H869.422Z" fill="#76F4DE"/>
<path d="M840.349 654.989C838.607 655.019 836.91 654.145 835.546 652.513L792.188 605.484L749.716 652.513C748.309 654.059 746.613 654.892 744.872 654.892C743.13 654.892 741.434 654.058 740.028 652.512C738.622 650.965 737.578 648.786 737.047 646.288C736.516 643.79 736.526 641.103 737.075 638.614L753.634 562.452L710.656 516.375C709.265 514.806 708.228 512.632 707.685 510.145C707.142 507.659 707.12 504.981 707.622 502.475C708.158 499.981 709.205 497.807 710.614 496.267C712.022 494.727 713.719 493.901 715.46 493.907H768.677L784.73 417.746C785.224 415.25 786.243 413.065 787.634 411.519C789.025 409.974 790.713 409.152 792.441 409.177C794.181 409.171 795.878 409.998 797.287 411.537C798.695 413.077 799.743 415.251 800.278 417.746L816.837 493.907H869.422C871.168 493.871 872.874 494.685 874.286 496.23C875.699 497.774 876.742 499.965 877.26 502.475C877.794 504.96 877.801 507.633 877.28 510.124C876.759 512.616 875.736 514.8 874.352 516.375L831.248 563.404L846.922 635.948C847.738 637.955 848.175 640.259 848.186 642.612C848.188 645.798 847.375 648.862 845.915 651.168C844.455 653.473 842.462 654.841 840.349 654.989ZM740.741 518.659L763.368 543.222C766.072 546.183 768.088 550.352 769.132 555.136C770.175 559.92 770.193 565.078 769.182 569.878L760.46 609.292L783.719 585.491C786.453 582.573 789.722 581.005 793.073 581.005C796.424 581.005 799.693 582.573 802.427 585.491L824.422 609.292L815.7 569.307C814.843 564.563 814.951 559.54 816.01 554.89C817.07 550.239 819.031 546.174 821.641 543.222L844.268 518.659H816.458C813.055 518.672 809.741 517.029 807.008 513.976C804.275 510.922 802.269 506.622 801.289 501.714L792.694 461.919L783.719 501.904C782.699 506.761 780.679 511.003 777.952 514.015C775.225 517.027 771.932 518.654 768.55 518.659H740.741Z" fill="#16191E"/>
<path d="M935.406 861.767C939.451 876.999 934.269 887.09 927.063 877.761L872.203 811.881L861.206 907.083C860.194 920.03 851.093 915.841 846.795 900.8L798.382 730.388V729.246C830.655 726.773 861.006 705.384 882.948 669.649L883.959 671.173L935.406 861.767Z" fill="#004EBD"/>
<path d="M857.161 926.314C853.183 925.589 849.422 923.185 846.313 919.378C843.204 915.57 840.873 910.516 839.59 904.798L791.177 733.435C790.785 731.915 790.571 730.304 790.545 728.675C790.499 725.356 791.277 722.131 792.726 719.63C794.176 717.13 796.193 715.535 798.382 715.156C828.499 712.931 856.829 692.962 877.26 659.558C878.816 657.104 880.949 655.668 883.201 655.56C885.4 655.69 887.5 656.969 889.142 659.177L890.153 660.7C890.927 661.899 891.53 663.325 891.923 664.889L943.37 855.293C944.888 859.706 945.681 864.603 945.681 869.573C945.681 874.543 944.888 879.441 943.37 883.854C942.221 886.349 940.692 888.395 938.91 889.819C937.129 891.244 935.148 892.005 933.131 892.041C929.147 891.838 925.358 889.392 922.513 885.186L878.776 832.825L869.675 908.225C869.514 913.075 868.129 917.65 865.802 921.012C863.476 924.375 860.385 926.271 857.161 926.314ZM810.391 738.956L854.633 894.897L864.493 810.167C864.717 808.03 865.316 806.022 866.227 804.349C867.138 802.676 868.328 801.398 869.675 800.647C870.999 799.907 872.428 799.693 873.823 800.026C875.218 800.36 876.532 801.23 877.639 802.551L926.684 861.196L880.673 689.832C861.102 716.581 836.587 733.716 810.391 738.956Z" fill="#16191E"/>
<path d="M991.784 76.1613V924.029C991.226 941.623 986.079 958.174 977.463 970.083C968.847 981.992 957.458 988.296 945.772 987.624H54.2287C42.5432 988.296 31.154 981.992 22.5377 970.083C13.9213 958.174 8.77465 941.623 8.2168 924.029V76.1613C8.7095 58.5157 13.8322 41.8863 22.4596 29.9263C31.087 17.9664 42.5134 11.654 54.2287 12.3761H945.772C957.487 11.654 968.914 17.9664 977.541 29.9263C986.169 41.8863 991.291 58.5157 991.784 76.1613ZM927.443 877.761C934.648 887.09 940.084 877.761 935.786 861.767L884.844 670.221L883.833 668.697C900.71 641.252 911.733 606.813 915.477 569.831C919.222 532.85 915.516 495.027 904.838 461.251C894.16 427.476 877.002 399.302 855.581 380.371C834.16 361.441 809.462 352.624 784.679 355.061C759.896 357.498 736.169 371.076 716.564 394.041C696.959 417.006 682.378 448.301 674.706 483.881C667.034 519.461 666.624 557.689 673.528 593.623C680.433 629.557 694.335 661.546 713.437 685.453L707.623 689.642L661.611 861.005C657.692 876.237 662.748 886.329 669.954 876.999L724.94 811.119L735.938 906.321C736.823 919.269 745.924 915.08 750.348 900.038L798.762 729.627L846.922 899.847C851.22 914.889 860.321 918.888 861.333 906.131L872.33 810.929L927.443 877.761Z" fill="#76F4DE"/>
<path d="M945.772 1000H54.2283C40.3344 1000.72 26.819 993.103 16.6511 978.822C6.48317 964.542 0.494273 944.766 0 923.839L0 76.1616C0.494273 55.2343 6.48317 35.4583 16.6511 21.1779C26.819 6.89745 40.3344 -0.719567 54.2283 9.85337e-05H945.772C959.657 -0.668886 973.153 6.96525 983.313 21.2352C993.474 35.5052 999.473 55.2515 1000 76.1616V924.029C999.44 944.905 993.427 964.603 983.27 978.833C973.113 993.062 959.635 1000.67 945.772 1000ZM54.2283 24.7526C44.7001 24.0779 35.381 29.1026 28.3015 38.7321C21.222 48.3615 16.9559 61.8151 16.4328 76.1616V924.029C16.9877 938.376 21.2853 951.811 28.3889 961.406C35.4924 971 44.8259 975.975 54.3547 975.248H945.772C955.3 975.975 964.634 971 971.737 961.406C978.841 951.811 983.139 938.376 983.694 924.029V76.1616C983.139 61.8144 978.841 48.3793 971.737 38.785C964.634 29.1907 955.3 24.2152 945.772 24.943L54.2283 24.7526ZM857.161 926.314C853.183 925.59 849.422 923.185 846.313 919.378C843.204 915.571 840.873 910.516 839.59 904.798L798.761 761.615L758.438 904.608C757.139 910.364 754.79 915.453 751.66 919.292C748.53 923.131 744.746 925.564 740.741 926.314C737.388 926.314 734.173 924.308 731.802 920.737C729.432 917.166 728.1 912.323 728.1 907.274L719.504 834.539L675.009 887.281C672.262 891.311 668.604 893.624 664.771 893.755C662.776 893.689 660.819 892.913 659.062 891.49C657.304 890.067 655.795 888.038 654.658 885.567C653.161 881.179 652.38 876.316 652.38 871.382C652.38 866.448 653.161 861.586 654.658 857.197L700.544 685.834V684.882C682.022 657.801 669.163 623.154 663.548 585.204C657.933 547.255 659.807 507.661 668.941 471.296C678.075 434.931 694.069 403.383 714.954 380.536C735.84 357.689 760.705 344.54 786.488 342.707C812.272 340.875 837.848 350.439 860.069 370.223C882.289 390.007 900.184 419.146 911.551 454.054C922.917 488.962 927.258 528.114 924.04 566.691C920.822 605.268 910.186 641.586 893.44 671.173L944.002 857.578C945.52 861.991 946.313 866.888 946.313 871.858C946.313 876.829 945.52 881.726 944.002 886.139C942.853 888.635 941.324 890.68 939.542 892.104C937.761 893.529 935.78 894.291 933.763 894.326C929.779 894.123 925.99 891.677 923.145 887.472L879.408 835.111L869.675 908.226C869.514 913.076 868.129 917.65 865.802 921.012C863.476 924.375 860.385 926.271 857.161 926.314ZM798.761 716.87C800.369 716.854 801.945 717.549 803.293 718.869C804.641 720.189 805.702 722.076 806.346 724.296L854.633 894.897L864.492 810.168C864.717 808.031 865.316 806.022 866.227 804.349C867.138 802.676 868.328 801.398 869.675 800.647C870.999 799.907 872.428 799.693 873.823 800.027C875.218 800.36 876.532 801.23 877.639 802.551L926.684 861.196L877.26 677.266C875.856 674.95 875.078 671.928 875.078 668.793C875.078 665.658 875.856 662.635 877.26 660.32C893.088 634.716 903.444 602.539 906.986 567.963C910.528 533.387 907.092 498.005 897.124 466.405C887.157 434.805 871.116 408.444 851.083 390.74C831.05 373.037 807.948 364.807 784.772 367.117C761.596 369.428 739.416 382.173 721.106 403.699C702.797 425.225 689.203 454.54 682.087 487.844C674.971 521.147 674.661 556.902 681.198 590.474C687.734 624.045 700.816 653.885 718.746 676.123C719.816 677.438 720.645 679.142 721.154 681.075C721.663 683.008 721.835 685.105 721.653 687.167C721.486 689.225 720.982 691.189 720.188 692.884C719.394 694.578 718.334 695.95 717.103 696.877L713.943 698.972L669.953 862.148L720.516 802.171C721.623 800.849 722.937 799.979 724.332 799.646C725.727 799.312 727.155 799.526 728.479 800.267C729.827 801.017 731.017 802.295 731.928 803.968C732.838 805.641 733.437 807.65 733.662 809.787L743.016 894.897L791.177 724.867C791.795 722.59 792.843 720.637 794.192 719.25C795.54 717.862 797.129 717.101 798.761 717.06V716.87Z" fill="#16191E"/>
<path d="M792.441 354.151C824.981 353.847 856.302 372.783 879.673 406.89C903.044 440.997 916.6 487.553 917.428 536.553C918.256 585.553 906.289 633.087 884.1 668.94C861.911 704.793 831.27 726.104 798.761 728.294H792.441C759.486 728.294 727.881 708.575 704.578 673.474C681.275 638.373 668.184 590.767 668.184 541.127C668.184 491.487 681.275 443.881 704.578 408.78C727.881 373.68 759.486 353.96 792.441 353.96V354.151ZM826.444 553.313L869.422 506.283H816.332C814.69 506.272 813.094 505.471 811.775 503.999C810.457 502.526 809.485 500.458 809 498.096L792.441 421.934L776.008 498.096C775.524 500.458 774.552 502.526 773.233 503.999C771.914 505.471 770.318 506.272 768.677 506.283H715.46L758.438 553.313C759.732 554.775 760.693 556.804 761.191 559.122C761.689 561.44 761.699 563.934 761.219 566.26L744.659 642.422L787.764 595.392C789.077 593.909 790.674 593.107 792.315 593.107C793.956 593.107 795.552 593.909 796.865 595.392L839.97 642.422L823.41 566.26C822.937 563.897 822.976 561.367 823.521 559.039C824.067 556.711 825.091 554.705 826.444 553.313Z" fill="#004EBD"/>
<path d="M792.441 740.86C761.99 740.91 732.457 725.157 708.814 696.252C685.17 667.348 668.86 627.056 662.627 582.159C656.394 537.263 660.621 490.503 674.594 449.75C688.568 408.997 711.435 376.739 739.348 358.406C767.261 340.073 798.514 336.785 827.848 349.095C857.182 361.404 882.805 388.56 900.404 425.991C918.003 463.422 926.504 508.843 924.476 554.609C922.448 600.374 910.014 643.69 889.268 677.266C865.902 715.346 833.528 738.052 799.14 740.48C796.914 740.8 794.677 740.927 792.441 740.86ZM792.441 366.527C761.665 366.527 732.149 384.942 710.387 417.722C688.626 450.501 676.4 494.96 676.4 541.317C676.4 587.675 688.626 632.133 710.387 664.913C732.149 697.693 761.665 716.108 792.441 716.108H797.75C828.061 713.981 856.614 694.055 877.289 660.599C897.964 627.143 909.116 582.819 908.355 537.126C907.595 491.434 894.982 448.007 873.221 416.154C851.459 384.3 822.279 366.553 791.935 366.717L792.441 366.527ZM840.096 654.988C838.354 655.019 836.657 654.145 835.292 652.513L792.441 605.864L749.715 652.513C748.309 654.059 746.613 654.892 744.871 654.892C743.13 654.892 741.434 654.058 740.028 652.512C738.621 650.965 737.577 648.786 737.047 646.288C736.516 643.79 736.526 641.103 737.075 638.614L753.634 562.452L710.656 516.375C709.265 514.806 708.227 512.632 707.685 510.145C707.142 507.659 707.12 504.981 707.622 502.475C708.158 499.981 709.205 497.807 710.614 496.267C712.022 494.727 713.719 493.901 715.459 493.907H768.676L784.73 417.745C785.224 415.25 786.243 413.065 787.634 411.519C789.025 409.973 790.712 409.151 792.441 409.177C794.181 409.171 795.878 409.997 797.286 411.537C798.695 413.077 799.742 415.251 800.278 417.745L816.837 493.907H869.422C871.167 493.871 872.873 494.685 874.286 496.23C875.698 497.774 876.741 499.965 877.259 502.475C877.794 504.96 877.801 507.633 877.28 510.124C876.759 512.615 875.735 514.8 874.352 516.375L831.247 563.404L847.933 638.614C848.474 641.115 848.471 643.812 847.926 646.311C847.38 648.81 846.32 650.983 844.899 652.513C843.545 654.174 841.842 655.051 840.096 654.988ZM740.741 518.659L763.367 543.221C766.071 546.183 768.088 550.351 769.132 555.136C770.175 559.92 770.193 565.078 769.182 569.878L760.46 609.292L783.719 585.491C786.453 582.573 789.722 581.005 793.073 581.005C796.424 581.005 799.692 582.573 802.427 585.491L824.422 609.292L815.699 569.307C814.843 564.562 814.951 559.54 816.01 554.89C817.069 550.239 819.031 546.174 821.641 543.221L844.267 518.659H816.458C813.055 518.672 809.741 517.029 807.008 513.976C804.275 510.922 802.269 506.622 801.289 501.713L792.694 461.919L783.719 501.904C782.699 506.761 780.679 511.002 777.952 514.015C775.225 517.027 771.932 518.654 768.55 518.659H740.741Z" fill="#16191E"/>
<path d="M798.761 728.294V729.436L750.347 899.847C745.923 914.889 736.822 918.888 735.937 906.131L724.94 810.929L669.953 877.761C662.748 887.09 657.312 877.761 661.61 861.767L707.622 690.403L713.437 686.215C735.663 713.899 763.6 729.048 792.441 729.055L798.761 728.294Z" fill="#004EBD"/>
<path d="M740.235 926.314C736.882 926.314 733.667 924.308 731.297 920.737C728.926 917.166 727.594 912.323 727.594 907.273L718.999 834.539L675.009 887.281C672.262 891.311 668.604 893.624 664.77 893.755C662.775 893.689 660.819 892.913 659.062 891.49C657.304 890.067 655.795 888.037 654.658 885.567C653.161 881.179 652.38 876.316 652.38 871.382C652.38 866.448 653.161 861.586 654.658 857.197L700.543 685.834C701.333 682.952 702.826 680.635 704.715 679.36L710.529 674.981C711.967 674.02 713.553 673.671 715.113 673.973C716.673 674.275 718.148 675.217 719.378 676.694C740.279 702.596 766.513 716.733 793.578 716.679H798.887C801.153 716.504 803.375 717.665 805.081 719.916C805.892 721.102 806.534 722.524 806.968 724.095C807.403 725.666 807.621 727.354 807.61 729.055C807.584 731.058 807.371 733.045 806.977 734.958L758.437 904.608C757.102 910.471 754.677 915.634 751.45 919.482C748.223 923.33 744.33 925.701 740.235 926.314ZM724.94 799.695C725.9 799.408 726.887 799.408 727.847 799.695C729.194 800.446 730.385 801.724 731.295 803.397C732.206 805.07 732.805 807.078 733.03 809.215L743.016 894.897L786.626 741.051C760.177 739.117 734.705 725.4 713.437 701.637L669.953 862.148L720.516 802.17C721.805 800.731 723.339 799.872 724.94 799.695Z" fill="#16191E"/>
<path d="M857.161 926.314C853.178 925.612 849.41 923.215 846.299 919.405C843.187 915.594 840.86 910.528 839.591 904.798L791.177 733.435C790.322 730.405 790.301 726.987 791.119 723.934C791.937 720.881 793.527 718.443 795.538 717.155C797.55 715.867 799.818 715.836 801.845 717.068C803.872 718.3 805.491 720.694 806.346 723.724L854.633 894.897L864.493 810.167C864.718 808.03 865.316 806.022 866.227 804.349C867.138 802.676 868.328 801.398 869.675 800.647C870.999 799.907 872.428 799.693 873.823 800.026C875.218 800.36 876.532 801.23 877.639 802.551L926.685 861.196L876.122 675.362C875.326 672.303 875.356 668.897 876.207 665.872C877.057 662.847 878.66 660.444 880.673 659.177C881.676 658.558 882.752 658.243 883.837 658.253C884.921 658.262 885.994 658.595 886.993 659.233C887.992 659.87 888.897 660.799 889.656 661.966C890.416 663.133 891.014 664.515 891.417 666.032L942.865 856.435C944.833 861.8 945.541 868.008 944.876 874.055C944.211 880.102 942.211 885.634 939.199 889.756C936.458 892.439 933.174 893.568 929.932 892.94C926.69 892.312 923.703 889.969 921.502 886.329L877.765 833.968L869.675 908.225C869.538 912.591 868.408 916.753 866.474 920.012C864.541 923.271 861.922 925.429 859.057 926.123L857.161 926.314Z" fill="#16191E"/>
<path d="M792.441 740.86C761.99 740.91 732.457 725.157 708.814 696.252C685.17 667.348 668.86 627.056 662.627 582.159C656.394 537.263 660.621 490.503 674.594 449.75C688.568 408.997 711.435 376.739 739.348 358.406C767.261 340.073 798.514 336.785 827.848 349.095C857.182 361.404 882.805 388.56 900.404 425.991C918.003 463.422 926.504 508.843 924.476 554.609C922.448 600.374 910.014 643.69 889.268 677.266C865.902 715.346 833.528 738.052 799.14 740.48C796.914 740.8 794.677 740.927 792.441 740.86ZM792.441 366.527C761.665 366.527 732.149 384.942 710.387 417.722C688.626 450.501 676.4 494.96 676.4 541.317C676.4 587.675 688.626 632.133 710.387 664.913C732.149 697.693 761.665 716.108 792.441 716.108H797.75C828.061 713.981 856.614 694.055 877.289 660.599C897.964 627.143 909.116 582.819 908.355 537.126C907.595 491.434 894.982 448.007 873.221 416.154C851.459 384.3 822.279 366.553 791.935 366.717L792.441 366.527Z" fill="#16191E"/>
<path d="M840.349 654.989C838.607 655.019 836.91 654.145 835.546 652.513L792.188 605.484L749.716 652.513C748.309 654.059 746.613 654.892 744.872 654.892C743.13 654.892 741.434 654.058 740.028 652.512C738.622 650.965 737.578 648.786 737.047 646.288C736.516 643.79 736.526 641.103 737.075 638.614L753.634 562.452L710.656 516.375C709.265 514.806 708.228 512.632 707.685 510.145C707.142 507.659 707.12 504.981 707.622 502.475C708.158 499.981 709.205 497.807 710.614 496.267C712.022 494.727 713.719 493.901 715.46 493.907H768.677L784.73 417.746C785.224 415.25 786.243 413.065 787.634 411.519C789.025 409.974 790.713 409.152 792.441 409.177C794.181 409.171 795.878 409.998 797.287 411.537C798.695 413.077 799.743 415.251 800.278 417.746L816.837 493.907H869.422C871.168 493.871 872.874 494.685 874.286 496.23C875.699 497.774 876.742 499.965 877.26 502.475C877.794 504.96 877.801 507.633 877.28 510.124C876.759 512.616 875.736 514.8 874.352 516.375L831.248 563.404L846.922 635.948C847.738 637.955 848.175 640.259 848.186 642.612C848.188 645.798 847.375 648.862 845.915 651.168C844.455 653.473 842.462 654.841 840.349 654.989ZM740.741 518.659L763.368 543.222C766.072 546.183 768.088 550.352 769.132 555.136C770.175 559.92 770.193 565.078 769.182 569.878L760.46 609.292L783.719 585.491C786.453 582.573 789.722 581.005 793.073 581.005C796.424 581.005 799.693 582.573 802.427 585.491L824.422 609.292L815.7 569.307C814.843 564.563 814.951 559.54 816.01 554.89C817.07 550.239 819.031 546.174 821.641 543.222L844.268 518.659H816.458C813.055 518.672 809.741 517.029 807.008 513.976C804.275 510.922 802.269 506.622 801.289 501.714L792.694 461.919L783.719 501.904C782.699 506.761 780.679 511.003 777.952 514.015C775.225 517.027 771.932 518.654 768.55 518.659H740.741Z" fill="#16191E"/>
<path d="M945.772 1000H54.2283C40.3344 1000.72 26.819 993.103 16.6511 978.822C6.48317 964.542 0.494273 944.766 0 923.839L0 76.1616C0.494273 55.2343 6.48317 35.4583 16.6511 21.1779C26.819 6.89745 40.3344 -0.719567 54.2283 9.85302e-05H945.772C959.657 -0.668886 973.153 6.96525 983.313 21.2352C993.474 35.5052 999.473 55.2515 1000 76.1616V924.029C999.44 944.905 993.427 964.603 983.27 978.833C973.113 993.062 959.635 1000.67 945.772 1000ZM54.2283 24.7526C44.7001 24.0779 35.381 29.1026 28.3015 38.7321C21.222 48.3615 16.9559 61.8151 16.4328 76.1616V924.029C16.9877 938.376 21.2853 951.811 28.3889 961.406C35.4924 971 44.8259 975.975 54.3547 975.248H945.772C955.301 975.975 964.634 971 971.737 961.406C978.841 951.811 983.139 938.376 983.694 924.029V76.1616C983.139 61.8144 978.841 48.3793 971.737 38.785C964.634 29.1907 955.301 24.2152 945.772 24.943L54.2283 24.7526Z" fill="#76F4DE"/>
<path d="M740.235 926.314H738.213C735.268 925.503 732.61 923.144 730.712 919.657C728.814 916.17 727.799 911.782 727.848 907.273L719.252 834.539L675.01 887.281C672.849 890.766 669.945 892.998 666.803 893.59C663.662 894.181 660.483 893.094 657.819 890.518C654.786 886.42 652.762 880.899 652.073 874.851C651.385 868.803 652.073 862.582 654.026 857.197L699.912 685.834C700.733 682.779 702.327 680.34 704.342 679.055C706.357 677.769 708.628 677.742 710.656 678.979C712.685 680.216 714.304 682.617 715.157 685.652C716.01 688.687 716.028 692.108 715.207 695.164L670.712 861.386L720.516 802.17C721.623 800.849 722.937 799.979 724.332 799.646C725.727 799.312 727.156 799.526 728.48 800.266C729.827 801.017 731.017 802.295 731.928 803.968C732.839 805.641 733.437 807.65 733.662 809.787L743.016 894.897L791.177 724.867C792.065 721.857 793.701 719.493 795.734 718.282C797.767 717.072 800.034 717.111 802.048 718.393C804.037 719.691 805.604 722.121 806.409 725.152C807.214 728.183 807.192 731.571 806.346 734.577L758.438 904.608C757.13 910.496 754.712 915.685 751.48 919.539C748.248 923.393 744.341 925.747 740.235 926.314Z" fill="#16191E"/>
<path d="M874.732 236.672H757.047C754.868 236.672 752.778 235.368 751.238 233.047C749.697 230.726 748.831 227.578 748.831 224.295C748.831 221.013 749.697 217.865 751.238 215.544C752.778 213.223 754.868 211.919 757.047 211.919H874.732C876.911 211.919 879.001 213.223 880.542 215.544C882.082 217.865 882.948 221.013 882.948 224.295C882.948 227.578 882.082 230.726 880.542 233.047C879.001 235.368 876.911 236.672 874.732 236.672Z" fill="#16191E"/>
<path d="M647.2 236.672H591.202C589.023 236.672 586.933 235.368 585.392 233.047C583.851 230.726 582.986 227.578 582.986 224.295C582.986 221.013 583.851 217.865 585.392 215.544C586.933 213.223 589.023 211.919 591.202 211.919H647.2C649.379 211.919 651.469 213.223 653.01 215.544C654.551 217.865 655.417 221.013 655.417 224.295C655.417 227.578 654.551 230.726 653.01 233.047C651.469 235.368 649.379 236.672 647.2 236.672Z" fill="#16191E"/>
<path d="M460.498 236.672H68.2594C66.0803 236.672 63.9904 235.368 62.4495 233.047C60.9086 230.726 60.043 227.578 60.043 224.295C60.043 221.013 60.9086 217.865 62.4495 215.544C63.9904 213.223 66.0803 211.919 68.2594 211.919H460.119C462.298 211.919 464.388 213.223 465.929 215.544C467.47 217.865 468.335 221.013 468.335 224.295C468.335 227.578 467.47 230.726 465.929 233.047C464.388 235.368 462.298 236.672 460.119 236.672H460.498Z" fill="#16191E"/>
<path d="M535.583 404.798H101.883C99.7043 404.798 97.6144 403.494 96.0735 401.173C94.5326 398.852 93.667 395.704 93.667 392.422C93.667 389.14 94.5326 385.992 96.0735 383.671C97.6144 381.35 99.7043 380.046 101.883 380.046H535.583C537.762 380.046 539.852 381.35 541.393 383.671C542.934 385.992 543.8 389.14 543.8 392.422C543.8 395.704 542.934 398.852 541.393 401.173C539.852 403.494 537.762 404.798 535.583 404.798Z" fill="#16191E"/>
<path d="M573.252 545.506H463.026C460.847 545.506 458.757 544.202 457.216 541.881C455.675 539.56 454.81 536.413 454.81 533.13C454.81 529.848 455.675 526.7 457.216 524.379C458.757 522.058 460.847 520.754 463.026 520.754H573.252C575.431 520.754 577.521 522.058 579.062 524.379C580.603 526.7 581.469 529.848 581.469 533.13C581.469 536.413 580.603 539.56 579.062 541.881C577.521 544.202 575.431 545.506 573.252 545.506Z" fill="#16191E"/>
<path d="M411.326 545.506H101.883C99.7043 545.506 97.6144 544.202 96.0735 541.881C94.5326 539.56 93.667 536.413 93.667 533.13C93.667 529.848 94.5326 526.7 96.0735 524.379C97.6144 522.058 99.7043 520.754 101.883 520.754H411.326C413.495 520.803 415.566 522.123 417.1 524.433C418.634 526.744 419.51 529.863 419.542 533.13C419.51 536.397 418.634 539.517 417.1 541.827C415.566 544.138 413.495 545.457 411.326 545.506Z" fill="#16191E"/>
<path d="M573.252 685.453H240.172C239.093 685.453 238.025 685.133 237.028 684.511C236.031 683.889 235.125 682.977 234.362 681.828C233.599 680.679 232.994 679.315 232.581 677.813C232.168 676.312 231.956 674.702 231.956 673.077C231.956 671.452 232.168 669.842 232.581 668.341C232.994 666.839 233.599 665.475 234.362 664.326C235.125 663.176 236.031 662.265 237.028 661.643C238.025 661.021 239.093 660.701 240.172 660.701H573.252C574.331 660.701 575.4 661.021 576.397 661.643C577.394 662.265 578.299 663.176 579.062 664.326C579.825 665.475 580.431 666.839 580.843 668.341C581.256 669.842 581.469 671.452 581.469 673.077C581.469 674.702 581.256 676.312 580.843 677.813C580.431 679.315 579.825 680.679 579.062 681.828C578.299 682.977 577.394 683.889 576.397 684.511C575.4 685.133 574.331 685.453 573.252 685.453Z" fill="#16191E"/>
<path d="M181.646 685.453H101.883C99.7043 685.453 97.6144 684.149 96.0735 681.828C94.5326 679.507 93.667 676.359 93.667 673.077C93.667 669.794 94.5326 666.647 96.0735 664.326C97.6144 662.005 99.7043 660.701 101.883 660.701H181.646C183.825 660.701 185.915 662.005 187.456 664.326C188.997 666.647 189.862 669.794 189.862 673.077C189.862 676.359 188.997 679.507 187.456 681.828C185.915 684.149 183.825 685.453 181.646 685.453Z" fill="#16191E"/>
<path d="M573.252 826.542H367.337C365.157 826.542 363.068 825.238 361.527 822.917C359.986 820.596 359.12 817.448 359.12 814.166C359.12 810.883 359.986 807.735 361.527 805.414C363.068 803.093 365.157 801.79 367.337 801.79H573.252C575.431 801.79 577.521 803.093 579.062 805.414C580.603 807.735 581.469 810.883 581.469 814.166C581.469 817.448 580.603 820.596 579.062 822.917C577.521 825.238 575.431 826.542 573.252 826.542Z" fill="#16191E"/>
<path d="M311.465 826.542H101.883C99.7043 826.542 97.6144 825.238 96.0735 822.917C94.5326 820.596 93.667 817.448 93.667 814.166C93.667 810.883 94.5326 807.735 96.0735 805.414C97.6144 803.093 99.7043 801.79 101.883 801.79H311.465C313.644 801.79 315.734 803.093 317.275 805.414C318.816 807.735 319.681 810.883 319.681 814.166C319.681 817.448 318.816 820.596 317.275 822.917C315.734 825.238 313.644 826.542 311.465 826.542Z" fill="#16191E"/>
</g>
<defs>
<clipPath id="clip0_253_61">
<rect width="1000" height="1000" fill="white"/>
</clipPath>
</defs>
</svg>
