<svg width="1500" height="1500" viewBox="0 0 1500 1500" fill="none" xmlns="http://www.w3.org/2000/svg">
<g clip-path="url(#clip0_253_2)">
<path d="M1431.05 14.4629H68.9549C41.7725 14.4629 19.7368 30.6102 19.7368 50.529V1449.47C19.7368 1469.39 41.7725 1485.54 68.9549 1485.54H1431.05C1458.23 1485.54 1480.26 1469.39 1480.26 1449.47V50.529C1480.26 30.6102 1458.23 14.4629 1431.05 14.4629Z" fill="#76F4DE"/>
<path d="M1431.05 1487.6H68.9551C55.1584 1487.59 41.9311 1483.57 32.1754 1476.42C22.4197 1469.27 16.9324 1459.58 16.9175 1449.47V50.5207C16.9354 40.4122 22.424 30.7216 32.1794 23.5746C41.9348 16.4275 55.1604 12.4077 68.9551 12.3967H1431.05C1444.84 12.4077 1458.07 16.4275 1467.82 23.5746C1477.58 30.7216 1483.06 40.4122 1483.08 50.5207V1449.47C1483.07 1459.58 1477.58 1469.27 1467.82 1476.42C1458.07 1483.57 1444.84 1487.59 1431.05 1487.6ZM68.9551 16.529C56.655 16.5377 44.862 20.1215 36.1636 26.4941C27.4651 32.8666 22.5715 41.5075 22.5566 50.5207V1449.47C22.5685 1458.49 27.4608 1467.13 36.1596 1473.5C44.8584 1479.88 56.6531 1483.46 68.9551 1483.47H1431.05C1443.35 1483.46 1455.14 1479.88 1463.84 1473.5C1472.54 1467.13 1477.43 1458.49 1477.44 1449.47V50.5207C1477.43 41.5075 1472.54 32.8666 1463.84 26.4941C1455.14 20.1215 1443.35 16.5377 1431.05 16.529H68.9551Z" fill="#16191E"/>
<path d="M1431.05 1500H68.9549C50.6733 1499.98 33.1465 1494.66 20.2195 1485.18C7.29247 1475.71 0.0208949 1462.87 0 1449.47L0 50.5207C0.0209003 37.125 7.29284 24.2825 20.2202 14.8112C33.1475 5.33977 50.6744 0.0131242 68.9549 0L1431.05 0C1449.33 0.0131242 1466.85 5.33977 1479.78 14.8112C1492.71 24.2825 1499.98 37.125 1500 50.5207V1449.47C1499.98 1462.87 1492.71 1475.71 1479.78 1485.18C1466.85 1494.66 1449.33 1499.98 1431.05 1500ZM68.9549 28.9256C61.1398 28.93 53.6463 31.2063 48.1191 35.255C42.5919 39.3037 39.4826 44.7939 39.4737 50.5207V1449.47C39.4797 1455.2 42.5876 1460.69 48.1151 1464.74C53.6426 1468.79 61.1378 1471.07 68.9549 1471.07H1431.05C1438.86 1471.07 1446.36 1468.79 1451.88 1464.74C1457.41 1460.69 1460.52 1455.2 1460.53 1449.47V50.5207C1460.52 44.7939 1457.41 39.3037 1451.88 35.255C1446.35 31.2063 1438.86 28.93 1431.05 28.9256H68.9549Z" fill="#76F4DE"/>
<path d="M851.02 408.545C906.81 367.662 906.81 301.379 851.02 260.496C795.229 219.614 704.774 219.614 648.984 260.496C593.193 301.379 593.193 367.662 648.984 408.545C704.774 449.427 795.229 449.427 851.02 408.545Z" fill="#16191E"/>
<path d="M985.151 627.909H514.85C490.737 627.909 473.56 611.05 479.887 594.025C506.684 521.686 617.481 467.488 750.023 467.488C882.564 467.488 993.339 521.653 1020.14 593.992C1026.45 611.05 1009.27 627.909 985.151 627.909Z" fill="#16191E"/>
<path d="M1138.78 746.661H1067.67C1062.44 746.661 1057.42 745.137 1053.72 742.425C1050.02 739.713 1047.94 736.034 1047.94 732.198C1047.94 728.363 1050.02 724.684 1053.72 721.972C1057.42 719.259 1062.44 717.736 1067.67 717.736H1138.78C1144.02 717.736 1149.04 719.259 1152.74 721.972C1156.44 724.684 1158.52 728.363 1158.52 732.198C1158.52 736.034 1156.44 739.713 1152.74 742.425C1149.04 745.137 1144.02 746.661 1138.78 746.661Z" fill="#16191E"/>
<path d="M986.256 746.661H676.692C671.457 746.661 666.437 745.137 662.736 742.425C659.034 739.713 656.955 736.034 656.955 732.198C656.955 728.363 659.034 724.684 662.736 721.972C666.437 719.259 671.457 717.736 676.692 717.736H986.256C991.49 717.736 996.51 719.259 1000.21 721.972C1003.91 724.684 1005.99 728.363 1005.99 732.198C1005.99 736.034 1003.91 739.713 1000.21 742.425C996.51 745.137 991.49 746.661 986.256 746.661Z" fill="#16191E"/>
<path d="M916.669 822.124H607.139C601.905 822.124 596.884 820.6 593.183 817.888C589.482 815.175 587.402 811.497 587.402 807.661C587.402 803.825 589.482 800.147 593.183 797.434C596.884 794.722 601.905 793.198 607.139 793.198H916.669C921.904 793.198 926.924 794.722 930.625 797.434C934.327 800.147 936.406 803.825 936.406 807.661C936.406 811.497 934.327 815.175 930.625 817.888C926.924 820.6 921.904 822.124 916.669 822.124Z" fill="#16191E"/>
<path d="M756.429 1002.91H446.898C441.664 1002.91 436.644 1001.39 432.942 998.673C429.241 995.961 427.162 992.282 427.162 988.446C427.162 984.61 429.241 980.932 432.942 978.219C436.644 975.507 441.664 973.983 446.898 973.983H756.429C761.663 973.983 766.683 975.507 770.385 978.219C774.086 980.932 776.165 984.61 776.165 988.446C776.165 992.282 774.086 995.961 770.385 998.673C766.683 1001.39 761.663 1002.91 756.429 1002.91Z" fill="#16191E"/>
<path d="M614.662 949.19H446.898C441.664 949.19 436.644 947.667 432.942 944.954C429.241 942.242 427.162 938.563 427.162 934.727C427.162 930.892 429.241 927.213 432.942 924.501C436.644 921.788 441.664 920.265 446.898 920.265H614.662C619.896 920.265 624.916 921.788 628.618 924.501C632.319 927.213 634.398 930.892 634.398 934.727C634.398 938.563 632.319 942.242 628.618 944.954C624.916 947.667 619.896 949.19 614.662 949.19Z" fill="#16191E"/>
<path d="M635.808 1133.77H446.898C441.664 1133.77 436.644 1132.24 432.942 1129.53C429.241 1126.82 427.162 1123.14 427.162 1119.31C427.162 1115.47 429.241 1111.79 432.942 1109.08C436.644 1106.37 441.664 1104.84 446.898 1104.84H635.808C641.043 1104.84 646.063 1106.37 649.764 1109.08C653.466 1111.79 655.545 1115.47 655.545 1119.31C655.545 1123.14 653.466 1126.82 649.764 1129.53C646.063 1132.24 641.043 1133.77 635.808 1133.77Z" fill="#16191E"/>
<path d="M902.256 1183.69H446.898C441.664 1183.69 436.644 1182.17 432.942 1179.46C429.241 1176.75 427.162 1173.07 427.162 1169.23C427.162 1165.4 429.241 1161.72 432.942 1159C436.644 1156.29 441.664 1154.77 446.898 1154.77H902.256C907.49 1154.77 912.51 1156.29 916.212 1159C919.913 1161.72 921.992 1165.4 921.992 1169.23C921.992 1173.07 919.913 1176.75 916.212 1179.46C912.51 1182.17 907.49 1183.69 902.256 1183.69Z" fill="#16191E"/>
<path d="M756.429 1357.25H446.898C441.664 1357.25 436.644 1355.72 432.942 1353.01C429.241 1350.3 427.162 1346.62 427.162 1342.79C427.162 1338.95 429.241 1335.27 432.942 1332.56C436.644 1329.85 441.664 1328.32 446.898 1328.32H756.429C761.663 1328.32 766.683 1329.85 770.385 1332.56C774.086 1335.27 776.165 1338.95 776.165 1342.79C776.165 1346.62 774.086 1350.3 770.385 1353.01C766.683 1355.72 761.663 1357.25 756.429 1357.25Z" fill="#16191E"/>
<path d="M578.008 746.661H315.79C310.555 746.661 305.535 745.137 301.834 742.425C298.132 739.713 296.053 736.034 296.053 732.198C296.053 728.363 298.132 724.684 301.834 721.972C305.535 719.259 310.555 717.736 315.79 717.736H578.008C583.242 717.736 588.262 719.259 591.964 721.972C595.665 724.684 597.744 728.363 597.744 732.198C597.744 736.034 595.665 739.713 591.964 742.425C588.262 745.137 583.242 746.661 578.008 746.661Z" fill="#16191E"/>
<path d="M263.008 890.562H167.729C153.472 890.562 141.914 899.032 141.914 909.479V979.298C141.914 989.745 153.472 998.215 167.729 998.215H263.008C277.265 998.215 288.823 989.745 288.823 979.298V909.479C288.823 899.032 277.265 890.562 263.008 890.562Z" fill="#16191E"/>
<path d="M263.008 1069.63H167.729C153.472 1069.63 141.914 1078.1 141.914 1088.55V1158.36C141.914 1168.81 153.472 1177.28 167.729 1177.28H263.008C277.265 1177.28 288.823 1168.81 288.823 1158.36V1088.55C288.823 1078.1 277.265 1069.63 263.008 1069.63Z" fill="#16191E"/>
<path d="M263.008 1248.69H167.729C153.472 1248.69 141.914 1257.16 141.914 1267.61V1337.43C141.914 1347.88 153.472 1356.35 167.729 1356.35H263.008C277.265 1356.35 288.823 1347.88 288.823 1337.43V1267.61C288.823 1257.16 277.265 1248.69 263.008 1248.69Z" fill="#16191E"/>
<g opacity="0.3">
<path d="M1448 1019.99L1409.99 1104.45C1409.23 1106.14 1407.77 1107.6 1405.81 1108.64C1403.86 1109.68 1401.5 1110.24 1399.08 1110.24C1397.86 1110.23 1396.64 1110.09 1395.47 1109.81C1392.58 1109.1 1390.19 1107.59 1388.82 1105.59C1387.45 1103.6 1387.21 1101.29 1388.15 1099.17L1392.19 1090.21C1387.62 1088.51 1383.77 1085.9 1381.09 1082.69C1378.4 1079.49 1376.98 1075.8 1376.98 1072.03C1376.98 1069.87 1377.46 1067.73 1378.4 1065.68C1380.48 1061.06 1384.75 1057.14 1390.43 1054.63C1396.11 1052.12 1402.83 1051.18 1409.37 1051.98L1426.15 1014.67C1427.73 1011.14 1427.34 1007.29 1425.05 1003.97C1422.77 1000.65 1418.78 998.129 1413.97 996.958L1399.22 993.397L1239.58 1347.12C1237.51 1351.66 1233.88 1355.74 1229.03 1358.96L1218.69 1365.69V1067.26L1279.75 931.992C1282.77 925.256 1289.31 920.074 1298.54 916.826L1310.49 890.256C1315.3 879.563 1325.7 870.706 1339.42 865.634C1353.13 860.562 1369.03 859.69 1383.63 863.211C1398.22 866.731 1410.3 874.354 1417.23 884.405C1424.15 894.455 1425.34 906.108 1420.53 916.801L1408.91 942.653C1412.28 946.797 1414.11 951.521 1414.2 956.347C1414.2 958.965 1413.62 961.566 1412.49 964.049L1406.45 977.463L1421.11 981C1431.72 983.567 1440.51 989.115 1445.54 996.426C1450.57 1003.74 1451.43 1012.21 1447.94 1019.99H1448Z" fill="#16191E"/>
</g>
<path d="M1248 1028.82C1246.72 1026.12 1246.3 1023.24 1246.75 1020.4L1259.88 940.703L1347.58 988.876C1350.78 990.636 1353.36 992.924 1355.13 995.554C1362.12 1015.13 1261.87 1046.41 1248 1028.82Z" fill="#F3F1A5"/>
<path d="M1265.98 1035.15C1256.89 1035.15 1249.77 1033.5 1246.58 1029.42L1246.44 1029.21C1245.1 1026.33 1244.65 1023.27 1245.11 1020.26L1258.65 938.487L1348.61 987.917C1352.03 989.783 1354.78 992.22 1356.65 995.025C1360.75 1006.37 1334.38 1019.93 1308.16 1027.81C1293.7 1032.16 1278.09 1035.15 1265.98 1035.15ZM1249.5 1028.31C1255.14 1035.19 1278.7 1034.1 1306.91 1025.58C1332.59 1017.84 1356.86 1005.15 1353.54 995.826C1351.88 993.457 1349.5 991.399 1346.58 989.81L1261.17 942.876L1248.37 1020.51C1247.96 1023.14 1248.35 1025.81 1249.5 1028.31Z" fill="#16191E"/>
<path d="M1253.64 978.735L1259.91 940.719L1301.73 963.71C1286.9 970.566 1270.66 975.639 1253.64 978.735Z" fill="#5F5A57"/>
<path d="M1251.72 980.306L1258.61 938.487L1304.61 963.76L1302.62 964.702C1287.64 971.65 1271.22 976.785 1254.01 979.909L1251.72 980.306ZM1261.2 942.917L1255.56 977.148C1270.8 974.189 1285.38 969.627 1298.84 963.603L1261.2 942.917Z" fill="#16191E"/>
<path d="M1265.9 1040.6C1253.39 1040.6 1243.34 1037.77 1239.18 1030.55C1238.74 1029.75 1238.51 1028.9 1238.51 1028.04C1238.52 1027.18 1238.75 1026.33 1239.21 1025.54C1239.66 1024.75 1240.32 1024.03 1241.15 1023.42C1241.99 1022.82 1242.97 1022.34 1244.06 1022.01C1245.14 1021.69 1246.3 1021.52 1247.48 1021.52C1248.65 1021.53 1249.81 1021.7 1250.89 1022.03C1251.97 1022.36 1252.95 1022.85 1253.78 1023.46C1254.6 1024.07 1255.26 1024.79 1255.7 1025.59C1258.12 1028.44 1277.35 1029.04 1306.13 1020.03C1319.12 1015.97 1330.94 1010.83 1338.39 1005.93C1344.85 1001.72 1347.07 998.421 1346.42 997.074C1345.59 995.706 1345.43 994.17 1345.96 992.724C1346.49 991.277 1347.68 990.008 1349.34 989.13C1350.99 988.251 1353.01 987.816 1355.05 987.898C1357.09 987.98 1359.03 988.573 1360.54 989.578H1360.6C1361.54 990.211 1362.29 990.983 1362.79 991.843C1371.74 1007.21 1343.01 1022.67 1313.17 1032.02C1297.31 1037.01 1280.01 1040.6 1265.9 1040.6Z" fill="#16191E"/>
<path d="M1372.8 1103.02C1370.99 1103.03 1369.19 1102.71 1367.57 1102.1C1365.95 1101.5 1364.55 1100.62 1363.48 1099.54C1362.42 1098.46 1361.72 1097.21 1361.44 1095.89C1361.16 1094.57 1361.32 1093.22 1361.89 1091.96L1399.87 1007.5C1401.46 1003.97 1401.06 1000.12 1398.78 996.798C1396.49 993.476 1392.5 990.954 1387.68 989.785L1350.17 980.694C1347.34 979.954 1345.02 978.434 1343.7 976.459C1342.39 974.483 1342.17 972.208 1343.11 970.119C1344.05 968.03 1346.07 966.293 1348.73 965.278C1351.39 964.263 1354.49 964.05 1357.36 964.686L1394.88 973.777C1400.13 975.045 1405 977.06 1409.19 979.706C1413.38 982.352 1416.83 985.578 1419.32 989.199C1421.81 992.82 1423.3 996.765 1423.71 1000.81C1424.12 1004.85 1423.44 1008.92 1421.71 1012.77L1383.72 1097.23C1382.97 1098.92 1381.5 1100.38 1379.54 1101.42C1377.58 1102.46 1375.22 1103.02 1372.8 1103.02Z" fill="#16191E"/>
<path d="M1368.81 939.265L1280.62 917.967L1295.15 885.653C1297.06 881.409 1300.09 877.481 1304.08 874.095C1308.06 870.71 1312.91 867.932 1318.35 865.92C1323.8 863.909 1329.73 862.703 1335.82 862.372C1341.9 862.041 1348.01 862.592 1353.8 863.992C1365.5 866.817 1375.19 872.932 1380.73 880.992C1386.28 889.051 1387.23 898.395 1383.37 906.967L1368.81 939.265Z" fill="#16191E"/>
<g opacity="0.3">
<path d="M1353.78 863.992C1349.85 863.047 1345.76 862.491 1341.63 862.339C1349.13 866.654 1354.64 872.556 1357.4 879.244C1360.16 885.932 1360.05 893.081 1357.07 899.719L1342.53 932.033L1280.98 917.157L1280.62 917.983L1368.81 939.281L1383.35 906.975C1385.26 902.73 1386.01 898.251 1385.56 893.793C1385.11 889.335 1383.46 884.986 1380.71 880.995C1377.97 877.003 1374.18 873.447 1369.55 870.53C1364.93 867.612 1359.57 865.391 1353.78 863.992Z" fill="#16191E"/>
</g>
<g opacity="0.51">
<path d="M1375.24 874.835C1364.19 873.321 1352.77 874.798 1343.1 878.99C1333.43 883.183 1326.16 889.805 1322.65 897.628L1310.24 925.14L1280.56 917.975L1295.11 885.645C1298.97 877.074 1307.31 869.977 1318.31 865.915C1329.31 861.853 1342.06 861.158 1353.76 863.983C1362.21 865.989 1369.67 869.761 1375.24 874.835Z" fill="#76F4DE"/>
</g>
<path d="M1368.81 947.694C1367.59 947.694 1366.38 947.551 1365.21 947.273L1277.02 925.967C1275.59 925.621 1274.26 925.071 1273.11 924.349C1271.97 923.628 1271.03 922.748 1270.35 921.76C1269.67 920.772 1269.26 919.696 1269.15 918.593C1269.04 917.49 1269.23 916.381 1269.7 915.331L1284.24 883.017C1289.05 872.325 1299.46 863.471 1313.17 858.403C1326.89 853.335 1342.8 852.467 1357.39 855.992C1371.98 859.516 1384.06 867.144 1390.98 877.196C1397.89 887.249 1399.08 898.903 1394.27 909.595L1379.73 941.909C1378.97 943.593 1377.51 945.058 1375.55 946.097C1373.59 947.136 1371.23 947.695 1368.81 947.694ZM1295.14 912.603L1361.49 928.628L1372.42 904.314C1374.86 897.961 1373.86 891.163 1369.63 885.338C1365.39 879.512 1358.26 875.108 1349.7 873.043C1341.15 870.979 1331.84 871.412 1323.71 874.254C1315.58 877.096 1309.26 882.126 1306.07 888.298L1295.14 912.603Z" fill="#16191E"/>
<path d="M1199.13 1342.06C1197.97 1343.31 1196.61 1344.45 1195.07 1345.45L1112.92 1398.92L1090.83 1320.08C1090.32 1318.4 1090.15 1316.67 1090.31 1314.95C1090.3 1314.91 1090.3 1314.86 1090.31 1314.82C1090.47 1313.27 1090.88 1311.75 1091.54 1310.27L1264.34 927.355C1277.88 897.207 1388.89 924.008 1375.27 954.165L1202.36 1337.23C1202.08 1337.88 1201.74 1338.47 1201.38 1339.09V1339.22C1200.75 1340.22 1200 1341.16 1199.13 1342.06Z" fill="#76F4DE"/>
<path d="M1199.13 1342.06C1197.97 1343.31 1196.61 1344.45 1195.07 1345.45L1112.92 1398.92L1090.83 1320.08C1090.32 1318.4 1090.15 1316.67 1090.31 1314.95C1090.3 1314.91 1090.3 1314.86 1090.31 1314.82C1100.51 1292.99 1209.17 1320.18 1199.13 1342.06Z" fill="#16191E"/>
<g opacity="0.3">
<path d="M1375.29 954.198L1202.38 1337.26C1202.1 1337.89 1201.77 1338.5 1201.39 1339.1V1339.24C1199.9 1341.61 1197.76 1343.73 1195.09 1345.46L1112.94 1398.95L1117.45 1385.03L1171.44 1326.1C1174.14 1324.33 1168.92 1326.49 1170.38 1324.13V1323.99C1170.76 1323.39 1171.09 1322.78 1171.38 1322.15L1344.36 939.091C1347.37 932.43 1344.36 925.942 1337.59 920.215C1361.94 927.512 1381.48 940.496 1375.29 954.198Z" fill="#16191E"/>
</g>
<g opacity="0.51">
<path d="M1315.79 915.479C1307.45 917.43 1301.13 921.14 1298.5 927L1125.67 1309.92C1124.24 1313.08 1123.98 1316.46 1124.9 1319.73L1125.27 1387.55L1112.86 1398.99L1090.76 1320.15C1089.79 1316.89 1090.05 1313.5 1091.53 1310.35L1264.34 927.438C1269.99 914.876 1292.48 912.157 1315.79 915.479Z" fill="#76F4DE"/>
</g>
<path d="M1112.93 1407.38C1110.28 1407.38 1107.71 1406.72 1105.66 1405.49C1103.6 1404.26 1102.19 1402.56 1101.65 1400.65L1079.49 1321.82C1078.15 1317.11 1078.54 1312.24 1080.62 1307.68L1253.46 924.794C1257.61 915.554 1268.37 909.166 1283.73 906.827C1313.13 902.347 1356.46 912.81 1376.47 929.223C1386.91 937.802 1390.38 947.612 1386.23 956.868L1213.33 1339.93C1211.27 1344.49 1207.63 1348.57 1202.75 1351.78L1120.58 1405.29C1118.47 1406.65 1115.74 1407.39 1112.93 1407.38ZM1298.52 922.587C1295.11 922.564 1291.71 922.8 1288.36 923.29C1277.54 924.942 1275.81 928.785 1275.25 930.042L1102.45 1312.96C1101.66 1314.7 1101.51 1316.56 1102.02 1318.36L1120.17 1382.97L1187.42 1339.17C1189.3 1337.94 1190.71 1336.37 1191.48 1334.61L1364.39 951.546C1364.97 950.29 1366.65 946.447 1359.33 940.405C1346.94 930.257 1319.55 922.587 1298.52 922.587Z" fill="#16191E"/>
<path d="M1350.88 1014.82C1349.71 1014.82 1348.54 1014.68 1347.43 1014.41C1346.05 1014.08 1344.78 1013.55 1343.68 1012.86C1342.58 1012.17 1341.68 1011.32 1341.03 1010.38C1340.38 1009.43 1339.99 1008.4 1339.88 1007.34C1339.77 1006.28 1339.95 1005.21 1340.4 1004.21C1341 1002.88 1338.76 999.769 1332.51 996.05C1324.84 991.537 1312.94 987.132 1299.88 983.975C1270.88 976.975 1252.26 979.372 1250.83 982.562C1249.91 984.598 1247.93 986.284 1245.32 987.249C1242.7 988.214 1239.68 988.378 1236.9 987.707C1234.12 987.035 1231.82 985.582 1230.5 983.667C1229.18 981.752 1228.96 979.532 1229.88 977.496C1232.13 972.537 1239.42 964.008 1262.95 963.314C1275.51 962.95 1291.07 964.826 1306.78 968.62C1322.49 972.413 1336.53 977.711 1346.33 983.446C1364.7 994.264 1363.66 1004.26 1361.41 1009.26C1360.68 1010.89 1359.27 1012.3 1357.38 1013.3C1355.49 1014.29 1353.21 1014.83 1350.88 1014.82Z" fill="#16191E"/>
<path d="M1369.82 1084.24L1371.74 1084.7L1389.16 1045.99L1387.23 1045.53C1380.22 1043.84 1372.59 1044.26 1366 1046.69C1359.42 1049.12 1354.42 1053.37 1352.11 1058.5C1349.8 1063.64 1350.37 1069.23 1353.69 1074.06C1357.01 1078.89 1362.81 1082.55 1369.82 1084.24Z" fill="#16191E"/>
<path d="M1199.11 1350.17C1197.35 1350.17 1195.61 1349.86 1194.04 1349.27C1192.48 1348.68 1191.13 1347.82 1190.1 1346.77C1189.08 1345.72 1188.42 1344.5 1188.17 1343.22C1187.92 1341.94 1188.09 1340.64 1188.67 1339.42C1189.04 1338.6 1187.88 1336.94 1185.7 1335.08C1171.78 1323.4 1127.5 1312.32 1106.75 1315.31C1103.49 1315.78 1101.11 1316.6 1100.77 1317.41C1100.31 1318.42 1099.57 1319.34 1098.61 1320.14C1097.66 1320.94 1096.49 1321.59 1095.19 1322.06C1092.57 1323 1089.53 1323.14 1086.77 1322.45C1084 1321.75 1081.72 1320.28 1080.43 1318.36C1079.14 1316.43 1078.95 1314.21 1079.9 1312.18C1082.06 1307.55 1087.79 1301.58 1102.45 1299.45C1130.94 1295.31 1183.2 1308.42 1202.29 1324.45C1212.18 1332.71 1211.68 1340.02 1209.52 1344.65C1208.78 1346.25 1207.39 1347.64 1205.52 1348.63C1203.65 1349.62 1201.41 1350.16 1199.11 1350.17Z" fill="#16191E"/>
<path d="M1103.75 1429.64C1102.52 1429.63 1101.3 1429.49 1100.13 1429.21C1097.24 1428.5 1094.85 1426.99 1093.48 1424.99C1092.11 1422.99 1091.88 1420.68 1092.83 1418.56L1104.34 1393.09C1104.81 1392.04 1105.57 1391.07 1106.55 1390.23C1107.54 1389.4 1108.74 1388.71 1110.09 1388.21C1111.44 1387.72 1112.91 1387.42 1114.41 1387.34C1115.92 1387.26 1117.43 1387.4 1118.86 1387.74C1120.3 1388.09 1121.62 1388.64 1122.77 1389.37C1123.91 1390.09 1124.84 1390.97 1125.52 1391.96C1126.2 1392.95 1126.6 1394.02 1126.71 1395.13C1126.82 1396.23 1126.64 1397.34 1126.16 1398.39L1114.66 1423.85C1113.9 1425.53 1112.44 1427 1110.48 1428.04C1108.53 1429.08 1106.17 1429.64 1103.75 1429.64Z" fill="#16191E"/>
</g>
<defs>
<clipPath id="clip0_253_2">
<rect width="1500" height="1500" fill="white"/>
</clipPath>
</defs>
</svg>
