<svg width="50" height="50" viewBox="0 0 50 50" fill="none" xmlns="http://www.w3.org/2000/svg">
<g clip-path="url(#clip0_258_15)">
<path d="M35.2505 1.08337H35.1345H1.51904V49H48.3651V10.4167L35.2505 1.08337Z" fill="#76F4DE"/>
<path d="M48.365 10.4167H35.2505L35.1345 1.08337H35.2505L48.365 10.4167Z" fill="#16191E"/>
<path d="M40.167 20.25L33.7315 32.3333H30.4499L24.0028 20.25H28.1076L32.0849 28.8333L36.0738 20.25H40.167Z" fill="#16191E"/>
<path d="M20.7329 28.25L23.8869 29.5834C23.4363 30.2382 22.7847 30.811 21.9813 31.2585C21.1778 31.706 20.2434 32.0165 19.2486 32.1667C17.474 32.53 15.5754 32.4114 13.9147 31.8334C11.9917 31.0873 10.4969 29.8773 9.69391 28.4167C8.88841 27.0014 8.88841 25.4153 9.69391 24C10.0581 23.2723 10.6183 22.6034 11.3426 22.0314C12.0668 21.4594 12.9408 20.9957 13.9147 20.6667C15.0088 20.3177 16.1967 20.147 17.3933 20.1667C18.7902 20.1469 20.1672 20.4066 21.3706 20.9167C22.4458 21.3578 23.3045 22.0274 23.8289 22.8334L20.7908 24.3334C20.6928 24.0289 20.4407 23.7616 20.0835 23.5834C19.5862 23.1944 18.9273 22.9313 18.205 22.8334C17.2572 22.6864 16.2681 22.7745 15.3989 23.0834C12.2333 24.4167 12.4652 28.5 15.5149 29.75C16.264 30.0138 17.1104 30.0994 17.9317 29.9945C18.753 29.8896 19.5066 29.5997 20.0835 29.1667C20.3807 28.8943 20.6012 28.583 20.7329 28.25Z" fill="#16191E"/>
<path d="M48.365 11.5C48.1667 11.4998 47.9705 11.47 47.7889 11.4126C47.6073 11.3553 47.4442 11.2715 47.3098 11.1667L34.4272 2C34.1881 1.91605 33.9865 1.78572 33.8451 1.62373C33.7037 1.46174 33.6282 1.27455 33.6271 1.08333C33.6359 0.798015 33.7976 0.526148 34.0784 0.324348C34.3592 0.122547 34.7375 0.00636634 35.1345 0L35.2505 0C35.4486 0.00123342 35.6443 0.0314201 35.8257 0.0887241C36.0071 0.146028 36.1704 0.229252 36.3056 0.333333L49.5362 9.75C49.6764 9.84717 49.788 9.96367 49.8642 10.0925C49.9405 10.2214 49.9797 10.36 49.9797 10.5C49.9797 10.64 49.9405 10.7786 49.8642 10.9075C49.788 11.0363 49.6764 11.1528 49.5362 11.25C49.1579 11.3603 48.7657 11.444 48.365 11.5Z" fill="#76F4DE"/>
<path d="M48.365 50H1.51902C1.11998 49.9958 0.73877 49.8805 0.4555 49.6785C0.172229 49.4765 0.00895815 49.2034 0 48.9167L0 1.08333C0.00895815 0.796601 0.172229 0.523528 0.4555 0.321505C0.73877 0.119482 1.11998 0.00424058 1.51902 0L35.1461 0C35.5212 0.0146427 35.8776 0.122314 36.1546 0.304664C36.4316 0.487013 36.612 0.732753 36.6651 1L36.7811 9.33333H48.4926C48.8916 9.33757 49.2728 9.45281 49.5561 9.65484C49.8394 9.85686 50.0026 10.1299 50.0116 10.4167V49C49.9336 49.2755 49.7286 49.524 49.4299 49.7054C49.1311 49.8869 48.756 49.9907 48.365 50ZM3.04963 47.9167H46.962V11.5H35.2505C34.8747 11.4869 34.5171 11.3798 34.2396 11.1972C33.9622 11.0145 33.7824 10.7679 33.7314 10.5L33.6271 2.16667H3.04963V47.9167Z" fill="#76F4DE"/>
</g>
<defs>
<clipPath id="clip0_258_15">
<rect width="50" height="50" fill="white"/>
</clipPath>
</defs>
</svg>
