<svg width="50" height="47" viewBox="0 0 50 47" fill="none" xmlns="http://www.w3.org/2000/svg">
<path id="Github" fill-rule="evenodd" clip-rule="evenodd" d="M25.0207 0C11.1849 0 0 10.5631 0 23.6311C0 34.077 7.16655 42.9193 17.1084 46.0489C18.3514 46.2841 18.8067 45.5404 18.8067 44.9148C18.8067 44.3669 18.7658 42.4891 18.7658 40.5325C11.8056 41.9413 10.3562 37.7155 10.3562 37.7155C9.23769 34.9768 7.58037 34.2729 7.58037 34.2729C5.30231 32.8253 7.7463 32.8253 7.7463 32.8253C10.2733 32.9818 11.5992 35.251 11.5992 35.251C13.8358 38.8501 17.4398 37.8332 18.8897 37.2071C19.0966 35.6812 19.7599 34.6249 20.4641 34.0381C14.9128 33.4903 9.07227 31.4559 9.07227 22.3789C9.07227 19.7967 10.0658 17.6841 11.6402 16.041C11.3918 15.4543 10.5217 13.0281 11.8891 9.78095C11.8891 9.78095 14.0017 9.15484 18.7653 12.2066C20.8047 11.6893 22.9079 11.4262 25.0207 11.424C27.1333 11.424 29.2869 11.6981 31.2756 12.2066C36.0396 9.15484 38.1523 9.78095 38.1523 9.78095C39.5197 13.0281 38.6491 15.4543 38.4007 16.041C40.0165 17.6841 40.9691 19.7967 40.9691 22.3789C40.9691 31.4559 35.1285 33.4509 29.5358 34.0381C30.4475 34.7814 31.2341 36.1897 31.2341 38.4199C31.2341 41.5888 31.1931 44.1321 31.1931 44.9143C31.1931 45.5404 31.649 46.2841 32.8914 46.0493C42.8333 42.9188 49.9999 34.077 49.9999 23.6311C50.0409 10.5631 38.815 0 25.0207 0Z" fill="#76F4DE"/>
</svg>
