<svg width="60" height="60" viewBox="0 0 60 60" fill="none" xmlns="http://www.w3.org/2000/svg">
<g clip-path="url(#clip0_259_25)">
<path d="M30 10L11.297 27.5V53.8H48.8019V27.5L30 10Z" fill="#CFDAFB"/>
<path d="M52.4951 21.3V27.5H48.7921L30 10L11.297 27.5H7.49506V21.3L30 1.30005L52.4951 21.3Z" fill="#16191E"/>
<path d="M52.4752 28.8H48.693C48.3517 28.8 48.0243 28.663 47.7829 28.4192C47.5415 28.1754 47.4059 27.8448 47.4059 27.5C47.4059 27.1552 47.5415 26.8246 47.7829 26.5808C48.0243 26.337 48.3517 26.2 48.693 26.2H51.198V21.8L30 2.90001L8.80196 21.8V26.2H11.297C11.6384 26.2 11.9658 26.337 12.2071 26.5808C12.4485 26.8246 12.5841 27.1552 12.5841 27.5C12.5841 27.8448 12.4485 28.1754 12.2071 28.4192C11.9658 28.663 11.6384 28.8 11.297 28.8H7.49503C7.15431 28.7949 6.82881 28.6566 6.58693 28.4142C6.34506 28.1718 6.20565 27.8441 6.198 27.5V21.2C6.20091 21.0299 6.23845 20.8622 6.30829 20.7074C6.37812 20.5525 6.47876 20.4139 6.60394 20.3L29.099 0.300009C29.3409 0.105296 29.6411 -0.000732422 29.9505 -0.000732422C30.2598 -0.000732422 30.56 0.105296 30.802 0.300009L53.297 20.3C53.4283 20.4081 53.5326 20.5459 53.6014 20.7023C53.6702 20.8586 53.7016 21.0291 53.6931 21.2V27.5C53.7104 27.669 53.6913 27.8399 53.6372 28.0008C53.5831 28.1617 53.4952 28.3089 53.3796 28.4323C53.2639 28.5558 53.1233 28.6525 52.9672 28.716C52.8111 28.7795 52.6433 28.8081 52.4752 28.8Z" fill="#CFDAFB"/>
<path d="M48.802 55.0001H11.297C10.9563 54.995 10.6308 54.8567 10.3889 54.6143C10.147 54.3718 10.0076 54.0441 9.99997 53.7001V27.5001C9.99142 27.3292 10.0228 27.1587 10.0916 27.0023C10.1604 26.846 10.2647 26.7082 10.396 26.6001L29.2079 9.10006C29.4498 8.90534 29.75 8.79932 30.0594 8.79932C30.3687 8.79932 30.6689 8.90534 30.9109 9.10006L49.7227 26.6001C49.8571 26.706 49.9642 26.8432 50.0348 26.9998C50.1055 27.1565 50.1377 27.3281 50.1287 27.5001V53.8001C50.0672 54.1188 49.9043 54.4085 49.6648 54.6251C49.4253 54.8417 49.1224 54.9734 48.802 55.0001ZM12.495 52.5001H47.5247V28.0001L30 11.7001L12.495 28.0001V52.5001Z" fill="#CFDAFB"/>
<path d="M36.6336 35H22.7722V55H36.6336V35Z" fill="#16191E"/>
</g>
<defs>
<clipPath id="clip0_259_25">
<rect width="60" height="60" fill="white"/>
</clipPath>
</defs>
</svg>
