<svg width="30" height="30" viewBox="0 0 30 30" fill="none" xmlns="http://www.w3.org/2000/svg">
<path d="M15.2508 29.9877C15.0551 29.9877 14.8675 29.9099 14.7292 29.7713C14.5908 29.6327 14.5131 29.4448 14.5131 29.2488C14.5131 29.0528 14.5908 28.8649 14.7292 28.7263C14.8675 28.5878 15.0551 28.5099 15.2508 28.5099C18.6736 28.459 21.948 27.1016 24.4057 24.7147C24.4752 24.646 24.5575 24.5917 24.648 24.5551C24.7385 24.5184 24.8354 24.5001 24.933 24.5013C25.0306 24.5024 25.127 24.5229 25.2167 24.5617C25.3063 24.6004 25.3874 24.6566 25.4552 24.727C25.523 24.7973 25.5761 24.8805 25.6116 24.9716C25.6471 25.0627 25.6642 25.1599 25.6619 25.2577C25.6595 25.3554 25.6379 25.4518 25.5981 25.5411C25.5584 25.6304 25.5013 25.7109 25.4303 25.778C22.7034 28.4271 19.0695 29.9329 15.2713 29.9877H15.2508Z" fill="#76F4DE"/>
<path d="M14.7877 1.47983C14.5921 1.48147 14.4038 1.40518 14.2643 1.26777C14.1248 1.13035 14.0455 0.943051 14.0439 0.747078C14.0423 0.551105 14.1184 0.362508 14.2556 0.222779C14.3928 0.0830508 14.5798 0.00363604 14.7754 0.00200292H14.843C14.9024 0.00200292 14.9598 0.00200292 15.0192 0.00200292C15.1195 -0.00328937 15.2198 0.011925 15.314 0.0467207C15.4082 0.0815163 15.4944 0.135165 15.5673 0.204395C15.6401 0.273625 15.6981 0.356989 15.7378 0.449406C15.7774 0.541823 15.7978 0.641356 15.7978 0.741945C15.7978 0.842533 15.7774 0.942069 15.7378 1.03449C15.6981 1.1269 15.6401 1.21026 15.5673 1.27949C15.4944 1.34872 15.4082 1.40237 15.314 1.43717C15.2198 1.47196 15.1195 1.48718 15.0192 1.48189H14.9496C14.8983 1.48189 14.8492 1.48189 14.7979 1.48189L14.7877 1.47983Z" fill="#76F4DE"/>
<path d="M0.778603 15.7349C0.582779 15.7349 0.394943 15.6572 0.256283 15.5186C0.117622 15.3801 0.0394524 15.1922 0.0389099 14.996C0.0425715 12.8601 0.501446 10.7496 1.38485 8.80555C2.26825 6.86155 3.55581 5.12889 5.16144 3.72344C5.23203 3.64838 5.31753 3.58895 5.41244 3.54897C5.50734 3.509 5.60955 3.48937 5.71248 3.49135C5.81542 3.49332 5.9168 3.51686 6.01011 3.56045C6.10341 3.60403 6.18658 3.6667 6.25425 3.74442C6.32192 3.82214 6.3726 3.91319 6.40303 4.01171C6.43346 4.11024 6.44297 4.21405 6.43094 4.31647C6.41891 4.4189 6.38561 4.51766 6.33318 4.60642C6.28075 4.69517 6.21036 4.77196 6.12652 4.83182C4.68057 6.09962 3.52135 7.66193 2.72631 9.41438C1.93128 11.1668 1.51874 13.069 1.51625 14.994C1.51652 15.0912 1.49764 15.1875 1.46069 15.2774C1.42374 15.3673 1.36945 15.449 1.30092 15.5178C1.2324 15.5866 1.15099 15.6412 1.06136 15.6785C0.971732 15.7158 0.875644 15.7349 0.778603 15.7349Z" fill="#76F4DE"/>
<path d="M14.7877 29.9878H14.7754C10.9772 29.933 7.34326 28.4271 4.61641 25.778C4.47841 25.6413 4.39975 25.4556 4.3975 25.2612C4.39524 25.0668 4.46956 24.8793 4.60436 24.7394C4.73915 24.5995 4.92355 24.5185 5.11759 24.5139C5.31162 24.5093 5.49965 24.5814 5.64092 24.7148C8.09871 27.1016 11.3731 28.459 14.7959 28.5099C14.9915 28.5099 15.1792 28.5878 15.3175 28.7263C15.4558 28.8649 15.5335 29.0529 15.5335 29.2488C15.5335 29.4448 15.4558 29.6328 15.3175 29.7713C15.1792 29.9099 14.9915 29.9878 14.7959 29.9878H14.7877Z" fill="#76F4DE"/>
<path d="M5.13072 25.9872C4.93919 25.9883 4.75475 25.9147 4.61642 25.7819C3.16468 24.3886 2.01044 22.7146 1.22361 20.8613C0.436779 19.0079 0.0337442 17.0139 0.0389274 14.9999C0.0336442 14.8995 0.0488325 14.799 0.0835682 14.7046C0.118304 14.6102 0.17186 14.5239 0.240971 14.451C0.310082 14.378 0.393303 14.3199 0.48556 14.2802C0.577818 14.2405 0.67718 14.22 0.777595 14.22C0.87801 14.22 0.977375 14.2405 1.06963 14.2802C1.16189 14.3199 1.24511 14.378 1.31422 14.451C1.38333 14.5239 1.43689 14.6102 1.47162 14.7046C1.50636 14.799 1.52155 14.8995 1.51627 14.9999C1.51153 16.8154 1.87485 18.6128 2.5842 20.2834C3.29356 21.954 4.33418 23.463 5.64297 24.7187C5.74842 24.8213 5.82097 24.953 5.85139 25.097C5.8818 25.2411 5.86869 25.3909 5.81372 25.5274C5.75876 25.664 5.66444 25.781 5.54279 25.8636C5.42115 25.9463 5.27769 25.9907 5.13072 25.9913V25.9872Z" fill="#76F4DE"/>
<path d="M15.0192 29.9998C14.9578 29.9998 14.8983 29.9998 14.8389 29.9998H14.7713C14.5757 29.9979 14.3888 29.9183 14.2518 29.7783C14.1148 29.6384 14.0389 29.4497 14.0408 29.2537C14.0427 29.0578 14.1223 28.8706 14.262 28.7334C14.4016 28.5961 14.59 28.5201 14.7857 28.522H14.8143C14.8615 28.522 14.9086 28.522 14.9557 28.522H15.0295C15.2251 28.522 15.4127 28.5999 15.5511 28.7384C15.6894 28.877 15.7671 29.0649 15.7671 29.2609C15.7671 29.4569 15.6894 29.6448 15.5511 29.7834C15.4127 29.922 15.2251 29.9998 15.0295 29.9998H15.0192Z" fill="#76F4DE"/>
<path d="M15.0192 30C14.8236 30 14.636 29.9222 14.4976 29.7836C14.3593 29.645 14.2816 29.4571 14.2816 29.2611C14.2816 29.0652 14.3593 28.8772 14.4976 28.7386C14.636 28.6001 14.8236 28.5222 15.0192 28.5222H15.093C15.1401 28.5222 15.1873 28.5222 15.2344 28.5222C15.4287 28.523 15.6154 28.5983 15.756 28.7327C15.8966 28.8671 15.9805 29.0503 15.9905 29.2447C15.9943 29.4409 15.9203 29.6306 15.7847 29.7722C15.6491 29.9138 15.463 29.9957 15.2672 30H15.2016C15.1401 29.9959 15.0807 30 15.0192 30Z" fill="#76F4DE"/>
<path d="M24.3976 5.01848C24.2186 5.0183 24.0459 4.9526 23.9119 4.83375C21.5082 2.72272 18.4348 1.53429 15.2385 1.47989C15.0428 1.47662 14.8565 1.39564 14.7205 1.25475C14.5845 1.11387 14.5099 0.924628 14.5131 0.728656C14.5164 0.532683 14.5972 0.346036 14.7379 0.209772C14.8785 0.073508 15.0674 -0.00121033 15.2631 0.00205587C18.8123 0.0585119 22.2258 1.37752 24.8934 3.72332C25.0065 3.82241 25.0868 3.95375 25.1233 4.09976C25.1599 4.24577 25.1511 4.39949 25.098 4.54033C25.045 4.68118 24.9503 4.80244 24.8266 4.88789C24.7029 4.97334 24.556 5.0189 24.4058 5.01848H24.3976Z" fill="#76F4DE"/>
<path d="M5.64091 5.01855C5.49063 5.01897 5.34381 4.97341 5.2201 4.88796C5.09638 4.80251 5.00166 4.68125 4.94863 4.5404C4.8956 4.39955 4.88677 4.24584 4.92334 4.09983C4.95991 3.95382 5.04012 3.82248 5.15324 3.72339C7.82088 1.37759 11.2344 0.0585804 14.7836 0.00212441C14.8811 -0.00205855 14.9785 0.0136885 15.0697 0.048405C15.161 0.0831216 15.2442 0.136081 15.3144 0.204059C15.3845 0.272037 15.4401 0.353611 15.4778 0.443812C15.5155 0.534012 15.5345 0.63095 15.5335 0.728724C15.5352 0.825763 15.5177 0.922175 15.4821 1.01245C15.4465 1.10272 15.3936 1.18509 15.3262 1.25485C15.2588 1.32462 15.1784 1.3804 15.0895 1.41902C15.0007 1.45765 14.9051 1.47835 14.8082 1.47996C11.6093 1.53186 8.53273 2.71967 6.12652 4.83176C5.99286 4.95136 5.82012 5.0178 5.64091 5.01855Z" fill="#76F4DE"/>
<path d="M15.2508 1.47988C15.1996 1.47988 15.1504 1.47988 15.0991 1.47988H15.0295C14.8403 1.4699 14.6622 1.38759 14.5318 1.24991C14.4014 1.11224 14.3287 0.92971 14.3287 0.739942C14.3287 0.550174 14.4014 0.367637 14.5318 0.229966C14.6622 0.0922944 14.8403 0.00998434 15.0295 0C15.0889 0 15.1483 0 15.2057 0H15.2733C15.3702 0.000808632 15.4659 0.0207205 15.5551 0.0586016C15.6443 0.0964828 15.7252 0.15159 15.7931 0.220776C15.861 0.289963 15.9147 0.371873 15.951 0.461832C15.9873 0.551791 16.0056 0.648036 16.0048 0.745072C16.004 0.842108 15.9841 0.938035 15.9463 1.02738C15.9085 1.11672 15.8535 1.19772 15.7844 1.26576C15.7153 1.33381 15.6336 1.38755 15.5438 1.42394C15.454 1.46033 15.3579 1.47864 15.261 1.47783L15.2508 1.47988Z" fill="#76F4DE"/>
<path d="M24.9098 25.9873C24.7627 25.9871 24.6189 25.9429 24.497 25.8605C24.375 25.778 24.2804 25.661 24.2251 25.5244C24.1699 25.3877 24.1566 25.2377 24.187 25.0935C24.2173 24.9493 24.2899 24.8174 24.3955 24.7147C25.7405 23.4176 26.8017 21.8546 27.5115 20.1248C28.2214 18.3951 28.5644 16.5363 28.519 14.6667C28.4735 12.797 28.0405 10.9572 27.2474 9.26413C26.4543 7.57104 25.3184 6.06162 23.9119 4.8317C23.8377 4.76812 23.7767 4.6904 23.7327 4.60303C23.6886 4.51567 23.6624 4.42041 23.6554 4.32279C23.6484 4.22516 23.6608 4.12712 23.692 4.03436C23.7231 3.94159 23.7723 3.85595 23.8368 3.7824C23.9013 3.70885 23.9797 3.64887 24.0675 3.60592C24.1553 3.56298 24.2507 3.53794 24.3483 3.53225C24.4458 3.52657 24.5435 3.54035 24.6357 3.5728C24.7279 3.60525 24.8127 3.65571 24.8852 3.72127C26.4453 5.08551 27.7052 6.75977 28.585 8.63776C29.4647 10.5157 29.9451 12.5564 29.9956 14.6303C30.046 16.7042 29.6655 18.7659 28.8782 20.6846C28.0909 22.6033 26.9139 24.3371 25.4221 25.7759C25.2855 25.9107 25.1016 25.9866 24.9098 25.9873Z" fill="#76F4DE"/>
<path d="M9.87826 7.38465C9.7497 7.38479 9.62335 7.35128 9.51171 7.28743C9.40007 7.22358 9.30702 7.13161 9.2418 7.02064C9.17657 6.90967 9.14143 6.78355 9.13986 6.65479C9.13828 6.52602 9.17033 6.39908 9.23282 6.28654C10.552 3.92021 12.3835 1.87997 14.593 0.315685C14.6721 0.25962 14.7615 0.219712 14.856 0.198241C14.9505 0.17677 15.0483 0.174154 15.1438 0.190546C15.2393 0.206937 15.3307 0.242013 15.4127 0.293771C15.4947 0.34553 15.5657 0.412958 15.6216 0.492204C15.6776 0.57145 15.7174 0.660963 15.7389 0.755631C15.7603 0.8503 15.7629 0.948272 15.7466 1.04395C15.7302 1.13963 15.6952 1.23115 15.6435 1.31327C15.5918 1.39539 15.5245 1.46652 15.4454 1.52258C13.4184 2.96131 11.7382 4.83586 10.5278 7.00904C10.4629 7.1241 10.3685 7.21964 10.2542 7.28571C10.14 7.35177 10.0102 7.38594 9.87826 7.38465Z" fill="#76F4DE"/>
<path d="M15.0192 1.65425C14.8627 1.6536 14.7104 1.60323 14.5843 1.51039C14.4581 1.41754 14.3646 1.28699 14.3173 1.13755C14.2699 0.988099 14.2711 0.82745 14.3206 0.678712C14.3702 0.529975 14.4656 0.40082 14.593 0.30983L14.675 0.248253C14.7262 0.209254 14.7795 0.168205 14.8328 0.131259C14.9943 0.0307959 15.1882 -0.00351369 15.3743 0.0354534C15.5604 0.0744204 15.7244 0.183669 15.8322 0.340529C15.94 0.497389 15.9834 0.689815 15.9534 0.877869C15.9233 1.06592 15.8221 1.23516 15.6708 1.35047C15.6394 1.37122 15.6093 1.39384 15.5807 1.4182L15.4454 1.51878C15.321 1.60751 15.172 1.6549 15.0192 1.65425Z" fill="#76F4DE"/>
<path d="M9.4992 23.3293C9.36165 23.3294 9.22678 23.2911 9.10983 23.2186C8.99288 23.146 8.89851 23.0422 8.83737 22.9187C7.61712 20.4573 6.98242 17.7462 6.98302 14.998C6.97774 14.8975 6.99292 14.797 7.02766 14.7027C7.0624 14.6083 7.11595 14.522 7.18506 14.449C7.25417 14.376 7.33739 14.3179 7.42965 14.2782C7.52191 14.2385 7.62127 14.218 7.72169 14.218C7.8221 14.218 7.92147 14.2385 8.01372 14.2782C8.10598 14.3179 8.1892 14.376 8.25831 14.449C8.32743 14.522 8.38098 14.6083 8.41571 14.7027C8.45045 14.797 8.46564 14.8975 8.46036 14.998C8.45931 17.5191 9.04142 20.0061 10.161 22.264C10.2169 22.3767 10.243 22.5019 10.2371 22.6276C10.2311 22.7533 10.1931 22.8754 10.1269 22.9823C10.0606 23.0892 9.96811 23.1773 9.85827 23.2384C9.74843 23.2995 9.62484 23.3315 9.4992 23.3313V23.3293Z" fill="#76F4DE"/>
<path d="M15.2508 29.9876C15.1046 29.9868 14.962 29.9425 14.841 29.8604C14.7856 29.8234 14.7303 29.7803 14.675 29.7393L14.5971 29.6798C14.4478 29.5624 14.3492 29.3921 14.3217 29.2041C14.2942 29.016 14.3399 28.8245 14.4494 28.6692C14.5589 28.5139 14.7237 28.4068 14.9099 28.3698C15.096 28.3329 15.2892 28.3691 15.4495 28.4708C15.4946 28.5016 15.5376 28.5365 15.5807 28.5693L15.6688 28.6371C15.7991 28.7256 15.8978 28.8536 15.9503 29.0023C16.0029 29.151 16.0065 29.3127 15.9607 29.4636C15.9149 29.6146 15.8221 29.7469 15.6958 29.8411C15.5695 29.9354 15.4165 29.9868 15.259 29.9876H15.2508Z" fill="#76F4DE"/>
<path d="M15.0192 29.8152C14.8665 29.8158 14.7174 29.7684 14.593 29.6797C12.1431 27.9396 10.1649 25.6151 8.83736 22.9166C8.79458 22.8294 8.76936 22.7346 8.76315 22.6376C8.75693 22.5407 8.76984 22.4434 8.80114 22.3515C8.83244 22.2595 8.88151 22.1746 8.94556 22.1016C9.00961 22.0287 9.08738 21.9691 9.17443 21.9262C9.26147 21.8834 9.35609 21.8581 9.45289 21.8519C9.54968 21.8456 9.64675 21.8586 9.73856 21.8899C9.83036 21.9213 9.9151 21.9704 9.98794 22.0346C10.0608 22.0988 10.1203 22.1767 10.1631 22.2638C11.38 24.7414 13.1958 26.875 15.4454 28.4708C15.5729 28.5617 15.6683 28.6909 15.7178 28.8396C15.7674 28.9884 15.7686 29.149 15.7212 29.2985C15.6738 29.4479 15.5803 29.5785 15.4542 29.6713C15.3281 29.7642 15.1758 29.8145 15.0192 29.8152Z" fill="#76F4DE"/>
<path d="M7.72271 15.7348C7.52689 15.7348 7.33905 15.657 7.20039 15.5185C7.06173 15.38 6.98356 15.192 6.98302 14.9959C6.9865 11.9486 7.76202 8.95207 9.23693 6.28693C9.33203 6.11545 9.49124 5.98884 9.67953 5.93495C9.86781 5.88106 10.0698 5.90431 10.2409 5.99957C10.4121 6.09484 10.5385 6.25432 10.5923 6.44293C10.6461 6.63155 10.6229 6.83384 10.5278 7.00532C9.17509 9.45071 8.46442 12.2001 8.4624 14.9959C8.4624 15.0931 8.44325 15.1893 8.40606 15.2791C8.36886 15.3689 8.31434 15.4505 8.24563 15.5191C8.17691 15.5877 8.09536 15.6421 8.00562 15.6791C7.91589 15.7162 7.81975 15.7351 7.72271 15.7348Z" fill="#76F4DE"/>
<path d="M9.87827 7.3851C9.79246 7.38478 9.70729 7.37022 9.62624 7.342C8.01982 6.76041 6.5182 5.92166 5.17988 4.85842C5.03288 4.7341 4.94002 4.5573 4.92099 4.36554C4.90196 4.17377 4.95826 3.98211 5.07795 3.83124C5.19765 3.68037 5.37131 3.58214 5.5621 3.5574C5.75289 3.53266 5.9458 3.58336 6.09989 3.69873C7.31201 4.66564 8.67332 5.42823 10.1303 5.95653C10.2958 6.01416 10.4353 6.1289 10.5241 6.2802C10.6128 6.43151 10.6449 6.60951 10.6146 6.78234C10.5842 6.95517 10.4935 7.11156 10.3586 7.2235C10.2237 7.33544 10.0534 7.39564 9.87827 7.39331V7.3851Z" fill="#76F4DE"/>
<path d="M20.1602 7.38501C19.985 7.38734 19.8148 7.32714 19.6799 7.2152C19.545 7.10325 19.4542 6.94687 19.4239 6.77404C19.3936 6.60121 19.4257 6.42321 19.5144 6.2719C19.6031 6.1206 19.7427 6.00586 19.9082 5.94823C21.3652 5.41993 22.7265 4.65734 23.9386 3.69043C24.0927 3.57506 24.2856 3.52436 24.4764 3.5491C24.6672 3.57384 24.8408 3.67207 24.9605 3.82294C25.0802 3.97381 25.1365 4.16547 25.1175 4.35724C25.0985 4.549 25.0056 4.7258 24.8586 4.85012C23.5203 5.91336 22.0187 6.75211 20.4122 7.3337C20.3317 7.36472 20.2465 7.38206 20.1602 7.38501Z" fill="#76F4DE"/>
<path d="M15.0192 8.30465C14.8301 8.29467 14.6519 8.21235 14.5215 8.07468C14.3911 7.93701 14.3185 7.75448 14.3185 7.56471C14.3185 7.37494 14.3911 7.1924 14.5215 7.05473C14.6519 6.91706 14.8301 6.83475 15.0192 6.82477C16.6873 6.8213 18.3419 6.52537 19.9082 5.95038C20.0899 5.89359 20.2864 5.90915 20.457 5.99382C20.6275 6.07849 20.7589 6.22576 20.8238 6.40499C20.8888 6.58423 20.8822 6.78163 20.8055 6.95615C20.7289 7.13067 20.588 7.26887 20.4122 7.34201C18.6842 7.97495 16.8591 8.30072 15.0192 8.30465Z" fill="#76F4DE"/>
<path d="M15.0192 8.30465C13.1793 8.30072 11.3543 7.97495 9.62624 7.34201C9.45046 7.26887 9.3096 7.13067 9.23294 6.95615C9.15628 6.78163 9.14972 6.58423 9.21464 6.40499C9.27956 6.22576 9.41096 6.07849 9.5815 5.99382C9.75204 5.90915 9.9486 5.89359 10.1303 5.95038C11.6966 6.52517 13.3512 6.82109 15.0192 6.82477C15.1195 6.81947 15.2198 6.83469 15.314 6.86948C15.4082 6.90428 15.4944 6.95793 15.5673 7.02716C15.6401 7.09639 15.6981 7.17975 15.7378 7.27217C15.7774 7.36458 15.7978 7.46412 15.7978 7.56471C15.7978 7.6653 15.7774 7.76483 15.7378 7.85725C15.6981 7.94966 15.6401 8.03303 15.5673 8.10226C15.4944 8.17149 15.4082 8.22514 15.314 8.25993C15.2198 8.29473 15.1195 8.30994 15.0192 8.30465Z" fill="#76F4DE"/>
<path d="M24.9078 25.9872C24.7298 25.9871 24.5579 25.9222 24.4242 25.8045C23.1929 24.7312 21.7876 23.8767 20.2688 23.2779C20.1737 23.2459 20.0861 23.1948 20.0113 23.1279C19.9366 23.0609 19.8761 22.9794 19.8338 22.8884C19.7914 22.7973 19.768 22.6985 19.7649 22.5981C19.7619 22.4977 19.7792 22.3977 19.8159 22.3042C19.8527 22.2107 19.908 22.1256 19.9786 22.0542C20.0491 21.9828 20.1334 21.9265 20.2264 21.8887C20.3193 21.851 20.419 21.8326 20.5193 21.8346C20.6196 21.8367 20.7184 21.8591 20.8097 21.9006C22.4849 22.5616 24.035 23.5043 25.3934 24.688C25.5068 24.7871 25.5873 24.9185 25.6242 25.0647C25.6611 25.2109 25.6525 25.3649 25.5998 25.5061C25.547 25.6473 25.4525 25.769 25.3288 25.855C25.2052 25.9409 25.0583 25.9871 24.9078 25.9872Z" fill="#76F4DE"/>
<path d="M20.5393 23.3294C20.4467 23.3295 20.3549 23.3121 20.2688 23.2781C18.5972 22.6174 16.8163 22.2783 15.0192 22.2785C14.8301 22.2685 14.6519 22.1862 14.5215 22.0485C14.3911 21.9108 14.3185 21.7283 14.3185 21.5385C14.3185 21.3488 14.3911 21.1662 14.5215 21.0286C14.6519 20.8909 14.8301 20.8086 15.0192 20.7986C17.0018 20.8003 18.9662 21.1763 20.8097 21.907C20.9744 21.9672 21.1123 22.084 21.199 22.2366C21.2856 22.3893 21.3153 22.5677 21.2829 22.7403C21.2504 22.9128 21.1578 23.0682 21.0216 23.1787C20.8854 23.2892 20.7145 23.3477 20.5393 23.3437V23.3294Z" fill="#76F4DE"/>
<path d="M9.4992 23.3294C9.32398 23.3334 9.15304 23.2749 9.01685 23.1643C8.88067 23.0538 8.78809 22.8984 8.75561 22.7259C8.72313 22.5534 8.75287 22.3749 8.83952 22.2223C8.92617 22.0697 9.0641 21.9528 9.22873 21.8926C11.0722 21.162 13.0367 20.786 15.0192 20.7842C15.1195 20.7789 15.2198 20.7942 15.314 20.8289C15.4082 20.8637 15.4944 20.9174 15.5673 20.9866C15.6401 21.0559 15.6981 21.1392 15.7378 21.2316C15.7774 21.324 15.7978 21.4236 15.7978 21.5242C15.7978 21.6248 15.7774 21.7243 15.7378 21.8167C15.6981 21.9091 15.6401 21.9925 15.5673 22.0617C15.4944 22.131 15.4082 22.1846 15.314 22.2194C15.2198 22.2542 15.1195 22.2694 15.0192 22.2641C13.2218 22.2659 11.4409 22.6071 9.76967 23.2699C9.68409 23.3067 9.59231 23.3269 9.4992 23.3294Z" fill="#76F4DE"/>
<path d="M5.13071 25.9872C4.98019 25.9871 4.8333 25.9409 4.70965 25.855C4.586 25.769 4.49148 25.6473 4.4387 25.5061C4.38592 25.3649 4.37741 25.2109 4.41429 25.0647C4.45116 24.9185 4.53168 24.7871 4.64509 24.688C6.00346 23.5043 7.55361 22.5616 9.22873 21.9006C9.40853 21.8401 9.60465 21.8511 9.77658 21.9314C9.94851 22.0116 10.0831 22.1549 10.1525 22.3317C10.222 22.5085 10.221 22.7053 10.1497 22.8814C10.0785 23.0575 9.94241 23.1994 9.76967 23.2779C8.25111 23.8771 6.8458 24.7316 5.61427 25.8046C5.48084 25.9227 5.30878 25.9877 5.13071 25.9872Z" fill="#76F4DE"/>
<path d="M22.3158 15.7348C22.2189 15.7348 22.123 15.7157 22.0335 15.6785C21.944 15.6414 21.8627 15.587 21.7942 15.5184C21.7257 15.4498 21.6713 15.3683 21.6343 15.2786C21.5972 15.189 21.5781 15.0929 21.5781 14.9959C21.5767 12.2003 20.8668 9.4509 19.5148 7.00532C19.4677 6.92041 19.4377 6.82705 19.4267 6.73055C19.4156 6.63406 19.4236 6.53632 19.4503 6.44293C19.4769 6.34954 19.5216 6.26232 19.5819 6.18624C19.6422 6.11017 19.7169 6.04674 19.8016 5.99957C19.8864 5.9524 19.9796 5.92242 20.0759 5.91133C20.1722 5.90024 20.2698 5.90827 20.363 5.93495C20.4563 5.96164 20.5433 6.00645 20.6193 6.06684C20.6952 6.12724 20.7585 6.20202 20.8056 6.28693C22.2805 8.95207 23.0561 11.9486 23.0595 14.9959C23.0593 15.0934 23.0398 15.1898 23.0023 15.2798C22.9647 15.3697 22.9098 15.4513 22.8407 15.52C22.7716 15.5886 22.6897 15.6429 22.5996 15.6798C22.5095 15.7166 22.4131 15.7353 22.3158 15.7348Z" fill="#76F4DE"/>
<path d="M15.0192 1.65425C14.8685 1.65406 14.7214 1.60827 14.5971 1.52288C14.548 1.48799 14.5008 1.45105 14.4537 1.4141C14.4066 1.37715 14.3984 1.37099 14.3677 1.35047C14.2163 1.23516 14.1152 1.06592 14.0851 0.877869C14.0551 0.689815 14.0984 0.497389 14.2063 0.340529C14.3141 0.183669 14.4781 0.0744204 14.6642 0.0354534C14.8502 -0.00351369 15.0442 0.0307959 15.2057 0.131259C15.2569 0.168205 15.3081 0.205148 15.3573 0.244147L15.4413 0.307778C15.5708 0.397523 15.6681 0.526386 15.7192 0.67553C15.7703 0.824675 15.7724 0.986278 15.7253 1.13671C15.6781 1.28715 15.5841 1.41853 15.4571 1.51164C15.3301 1.60476 15.1766 1.65473 15.0192 1.65425Z" fill="#76F4DE"/>
<path d="M14.7877 29.9877C14.6302 29.9868 14.4771 29.9355 14.3509 29.8412C14.2246 29.7469 14.1318 29.6146 14.086 29.4636C14.0402 29.3127 14.0438 29.151 14.0963 29.0023C14.1489 28.8536 14.2475 28.7256 14.3779 28.6371L14.4619 28.5735C14.507 28.5365 14.5541 28.5016 14.6012 28.4688C14.6808 28.4132 14.7704 28.374 14.8651 28.3531C14.9597 28.3323 15.0576 28.3304 15.153 28.3474C15.2484 28.3645 15.3396 28.4002 15.4212 28.4526C15.5028 28.5049 15.5734 28.5728 15.6288 28.6525C15.6842 28.7321 15.7235 28.8219 15.7443 28.9168C15.765 29.0116 15.767 29.1096 15.7499 29.2052C15.7329 29.3008 15.6973 29.3921 15.645 29.4738C15.5928 29.5556 15.5249 29.6263 15.4454 29.6818L15.3655 29.7413C15.3143 29.7824 15.261 29.8235 15.2057 29.8604C15.0824 29.9441 14.9367 29.9885 14.7877 29.9877Z" fill="#76F4DE"/>
<path d="M20.5393 23.3291C20.4136 23.3293 20.29 23.2973 20.1802 23.2362C20.0704 23.1752 19.9779 23.087 19.9116 22.9801C19.8453 22.8732 19.8074 22.7511 19.8014 22.6254C19.7954 22.4997 19.8216 22.3745 19.8774 22.2618C20.9971 20.0039 21.5792 17.5169 21.5781 14.9958C21.5728 14.8953 21.588 14.7948 21.6228 14.7005C21.6575 14.6061 21.7111 14.5198 21.7802 14.4468C21.8493 14.3738 21.9325 14.3157 22.0248 14.276C22.117 14.2363 22.2164 14.2158 22.3168 14.2158C22.4172 14.2158 22.5166 14.2363 22.6088 14.276C22.7011 14.3157 22.7843 14.3738 22.8534 14.4468C22.9225 14.5198 22.9761 14.6061 23.0108 14.7005C23.0456 14.7948 23.0607 14.8953 23.0555 14.9958C23.0561 17.744 22.4214 20.4551 21.2011 22.9165C21.1403 23.0404 21.046 23.1446 20.929 23.2176C20.8121 23.2905 20.677 23.3291 20.5393 23.3291Z" fill="#76F4DE"/>
<path d="M15.0192 29.8152C14.8627 29.8145 14.7104 29.7642 14.5843 29.6713C14.4581 29.5785 14.3646 29.4479 14.3173 29.2985C14.2699 29.149 14.2711 28.9884 14.3206 28.8396C14.3702 28.6909 14.4656 28.5617 14.593 28.4708C16.8422 26.8746 18.6579 24.7411 19.8754 22.2638C19.9182 22.1767 19.9777 22.0988 20.0505 22.0346C20.1234 21.9704 20.2081 21.9213 20.2999 21.8899C20.3917 21.8586 20.4888 21.8456 20.5856 21.8519C20.6824 21.8581 20.777 21.8834 20.864 21.9262C20.9511 21.9691 21.0288 22.0287 21.0929 22.1016C21.1569 22.1746 21.206 22.2595 21.2373 22.3515C21.2686 22.4434 21.2815 22.5407 21.2753 22.6376C21.2691 22.7346 21.2439 22.8294 21.2011 22.9166C19.8735 25.6151 17.8953 27.9396 15.4454 29.6797C15.3211 29.7687 15.172 29.8161 15.0192 29.8152Z" fill="#76F4DE"/>
<path d="M20.1602 7.38509C20.0285 7.38546 19.8992 7.35041 19.7857 7.28362C19.6721 7.21683 19.5786 7.12074 19.5148 7.00537C18.305 4.83175 16.6246 2.95707 14.5971 1.51892C14.518 1.46285 14.4507 1.39173 14.399 1.30961C14.3474 1.22748 14.3124 1.13597 14.296 1.04029C14.2796 0.944608 14.2822 0.846636 14.3037 0.751967C14.3251 0.657298 14.365 0.567786 14.4209 0.48854C14.4769 0.409294 14.5479 0.341869 14.6299 0.29011C14.7119 0.238352 14.8032 0.203276 14.8987 0.186885C14.9942 0.170494 15.092 0.173106 15.1865 0.194577C15.2811 0.216048 15.3704 0.255956 15.4495 0.312021C17.6595 1.87743 19.4912 3.91912 20.8097 6.28698C20.8722 6.39952 20.9043 6.52646 20.9027 6.65523C20.9011 6.78399 20.866 6.91011 20.8008 7.02108C20.7355 7.13205 20.6425 7.22402 20.5309 7.28787C20.4192 7.35172 20.2928 7.38524 20.1643 7.38509H20.1602Z" fill="#76F4DE"/>
<path d="M7.72271 15.7351H0.778609C0.678333 15.7404 0.578033 15.7251 0.483817 15.6903C0.389601 15.6555 0.303443 15.6019 0.230595 15.5327C0.157747 15.4634 0.0997337 15.3801 0.060089 15.2877C0.0204444 15.1952 0 15.0957 0 14.9951C0 14.8945 0.0204444 14.795 0.060089 14.7026C0.0997337 14.6102 0.157747 14.5268 0.230595 14.4576C0.303443 14.3883 0.389601 14.3347 0.483817 14.2999C0.578033 14.2651 0.678333 14.2499 0.778609 14.2552H7.72271C7.91189 14.2652 8.09003 14.3475 8.22042 14.4851C8.3508 14.6228 8.42348 14.8054 8.42348 14.9951C8.42348 15.1849 8.3508 15.3674 8.22042 15.5051C8.09003 15.6428 7.91189 15.7251 7.72271 15.7351Z" fill="#76F4DE"/>
<path d="M22.3158 15.7351H15.0192C14.8301 15.7251 14.6519 15.6428 14.5215 15.5051C14.3911 15.3674 14.3185 15.1849 14.3185 14.9951C14.3185 14.8054 14.3911 14.6228 14.5215 14.4851C14.6519 14.3475 14.8301 14.2652 15.0192 14.2552H22.3158C22.416 14.2499 22.5163 14.2651 22.6106 14.2999C22.7048 14.3347 22.7909 14.3883 22.8638 14.4576C22.9366 14.5268 22.9946 14.6102 23.0343 14.7026C23.0739 14.795 23.0944 14.8945 23.0944 14.9951C23.0944 15.0957 23.0739 15.1952 23.0343 15.2877C22.9946 15.3801 22.9366 15.4634 22.8638 15.5327C22.7909 15.6019 22.7048 15.6555 22.6106 15.6903C22.5163 15.7251 22.416 15.7404 22.3158 15.7351Z" fill="#76F4DE"/>
<path d="M15.0192 15.7351H7.7227C7.62242 15.7404 7.52212 15.7251 7.42791 15.6903C7.33369 15.6555 7.24753 15.6019 7.17469 15.5327C7.10184 15.4634 7.04383 15.3801 7.00418 15.2877C6.96454 15.1952 6.94409 15.0957 6.94409 14.9951C6.94409 14.8945 6.96454 14.795 7.00418 14.7026C7.04383 14.6102 7.10184 14.5268 7.17469 14.4576C7.24753 14.3883 7.33369 14.3347 7.42791 14.2999C7.52212 14.2651 7.62242 14.2499 7.7227 14.2552H15.0192C15.1195 14.2499 15.2198 14.2651 15.314 14.2999C15.4082 14.3347 15.4944 14.3883 15.5672 14.4576C15.6401 14.5268 15.6981 14.6102 15.7377 14.7026C15.7774 14.795 15.7978 14.8945 15.7978 14.9951C15.7978 15.0957 15.7774 15.1952 15.7377 15.2877C15.6981 15.3801 15.6401 15.4634 15.5672 15.5327C15.4944 15.6019 15.4082 15.6555 15.314 15.6903C15.2198 15.7251 15.1195 15.7404 15.0192 15.7351Z" fill="#76F4DE"/>
<path d="M28.8398 15.735H22.3158C22.1266 15.725 21.9484 15.6427 21.8181 15.505C21.6877 15.3674 21.615 15.1848 21.615 14.9951C21.615 14.8053 21.6877 14.6228 21.8181 14.4851C21.9484 14.3474 22.1266 14.2651 22.3158 14.2551H28.8398C29.029 14.2651 29.2071 14.3474 29.3375 14.4851C29.4679 14.6228 29.5406 14.8053 29.5406 14.9951C29.5406 15.1848 29.4679 15.3674 29.3375 15.505C29.2071 15.6427 29.029 15.725 28.8398 15.735Z" fill="#76F4DE"/>
<path d="M15.0192 8.30437C14.8234 8.30383 14.6358 8.22552 14.4975 8.08662C14.3592 7.94772 14.2816 7.75956 14.2816 7.5634V0.915206C14.2763 0.814757 14.2915 0.714284 14.3262 0.619905C14.361 0.525527 14.4145 0.43922 14.4836 0.366247C14.5527 0.293273 14.636 0.23516 14.7282 0.195447C14.8205 0.155734 14.9198 0.135254 15.0203 0.135254C15.1207 0.135254 15.22 0.155734 15.3123 0.195447C15.4046 0.23516 15.4878 0.293273 15.5569 0.366247C15.626 0.43922 15.6795 0.525527 15.7143 0.619905C15.749 0.714284 15.7642 0.814757 15.7589 0.915206V7.5634C15.7589 7.75992 15.681 7.94839 15.5423 8.08735C15.4036 8.2263 15.2154 8.30437 15.0192 8.30437Z" fill="#76F4DE"/>
<path d="M15.0192 15.7347C14.8236 15.7347 14.636 15.6569 14.4976 15.5183C14.3593 15.3797 14.2816 15.1918 14.2816 14.9958V7.56355C14.2916 7.37405 14.3737 7.1956 14.5112 7.06499C14.6486 6.93438 14.8308 6.86157 15.0203 6.86157C15.2097 6.86157 15.3919 6.93438 15.5294 7.06499C15.6668 7.1956 15.749 7.37405 15.7589 7.56355V14.9958C15.7584 15.192 15.6802 15.3799 15.5416 15.5184C15.4029 15.657 15.2151 15.7347 15.0192 15.7347Z" fill="#76F4DE"/>
<path d="M15.0192 29.8154C14.9224 29.8154 14.8264 29.7963 14.7369 29.7592C14.6475 29.722 14.5661 29.6676 14.4976 29.599C14.4291 29.5304 14.3748 29.4489 14.3377 29.3593C14.3007 29.2696 14.2816 29.1735 14.2816 29.0765V21.5313C14.2916 21.3418 14.3737 21.1634 14.5112 21.0328C14.6486 20.9022 14.8308 20.8293 15.0203 20.8293C15.2097 20.8293 15.3919 20.9022 15.5294 21.0328C15.6668 21.1634 15.749 21.3418 15.7589 21.5313V29.0765C15.7584 29.2726 15.6802 29.4606 15.5416 29.5991C15.4029 29.7376 15.2151 29.8154 15.0192 29.8154Z" fill="#76F4DE"/>
<path d="M15.0192 1.65439C14.8236 1.65439 14.636 1.57654 14.4976 1.43797C14.3593 1.2994 14.2816 1.11145 14.2816 0.915475V0.726641C14.2916 0.537135 14.3737 0.358683 14.5112 0.228074C14.6486 0.0974656 14.8308 0.0246582 15.0203 0.0246582C15.2097 0.0246582 15.3919 0.0974656 15.5294 0.228074C15.6668 0.358683 15.749 0.537135 15.7589 0.726641V0.913423C15.7589 1.01073 15.7398 1.10708 15.7026 1.19698C15.6654 1.28688 15.611 1.36856 15.5423 1.43737C15.4736 1.50617 15.392 1.56075 15.3023 1.59799C15.2126 1.63523 15.1164 1.65439 15.0192 1.65439Z" fill="#76F4DE"/>
<path d="M15.0192 22.2782C14.9222 22.2782 14.8261 22.259 14.7365 22.2218C14.6468 22.1845 14.5654 22.1299 14.4969 22.0611C14.4284 21.9922 14.3741 21.9105 14.3371 21.8206C14.3002 21.7307 14.2813 21.6344 14.2816 21.5372V14.9958C14.2763 14.8953 14.2915 14.7948 14.3262 14.7005C14.361 14.6061 14.4145 14.5198 14.4836 14.4468C14.5527 14.3738 14.636 14.3157 14.7282 14.276C14.8205 14.2363 14.9198 14.2158 15.0203 14.2158C15.1207 14.2158 15.22 14.2363 15.3123 14.276C15.4046 14.3157 15.4878 14.3738 15.5569 14.4468C15.626 14.5198 15.6795 14.6061 15.7143 14.7005C15.749 14.7948 15.7642 14.8953 15.7589 14.9958V21.5311C15.7597 21.6289 15.7412 21.7259 15.7044 21.8165C15.6676 21.9071 15.6132 21.9895 15.5445 22.059C15.4757 22.1285 15.3939 22.1836 15.3037 22.2212C15.2136 22.2588 15.1169 22.2782 15.0192 22.2782Z" fill="#76F4DE"/>
<path d="M15.0192 30.0002C14.8236 30.0002 14.636 29.9224 14.4976 29.7838C14.3593 29.6452 14.2816 29.4573 14.2816 29.2613V29.0766C14.2763 28.9761 14.2915 28.8757 14.3262 28.7813C14.361 28.6869 14.4145 28.6006 14.4836 28.5276C14.5527 28.4546 14.636 28.3965 14.7282 28.3568C14.8205 28.3171 14.9198 28.2966 15.0203 28.2966C15.1207 28.2966 15.22 28.3171 15.3123 28.3568C15.4046 28.3965 15.4878 28.4546 15.5569 28.5276C15.626 28.6006 15.6795 28.6869 15.7143 28.7813C15.749 28.8757 15.7642 28.9761 15.7589 29.0766V29.2613C15.7584 29.4575 15.6802 29.6454 15.5416 29.7839C15.4029 29.9224 15.2151 30.0002 15.0192 30.0002Z" fill="#76F4DE"/>
</svg>
